<svg xmlns="http://www.w3.org/2000/svg" xmlns:xlink="http://www.w3.org/1999/xlink" width="213" zoomAndPan="magnify" viewBox="0 0 159.75 55.5" height="74" preserveAspectRatio="xMidYMid meet" version="1.0"><defs><g/><clipPath id="cb2f06bdf4"><path d="M 4.835938 4.488281 L 33 4.488281 L 33 33 L 4.835938 33 Z M 4.835938 4.488281 " clip-rule="nonzero"/></clipPath><clipPath id="d0477cab73"><path d="M 16 25 L 43.488281 25 L 43.488281 50.570312 L 16 50.570312 Z M 16 25 " clip-rule="nonzero"/></clipPath></defs><g clip-path="url(#cb2f06bdf4)"><path fill="#00a79d" d="M 31.070312 13.0625 L 24.121094 13.0625 L 24.121094 6.046875 C 24.121094 5.195312 23.4375 4.503906 22.589844 4.503906 L 14.84375 4.503906 C 14 4.503906 13.316406 5.195312 13.316406 6.046875 L 13.316406 13.0625 L 6.363281 13.0625 C 5.519531 13.0625 4.835938 13.753906 4.835938 14.605469 L 4.835938 22.421875 C 4.835938 23.273438 5.519531 23.964844 6.363281 23.964844 L 13.316406 23.964844 L 13.316406 30.980469 C 13.316406 31.832031 14 32.523438 14.84375 32.523438 L 22.589844 32.523438 C 23.4375 32.523438 24.121094 31.832031 24.121094 30.980469 L 24.121094 23.964844 L 31.070312 23.964844 C 31.917969 23.964844 32.601562 23.273438 32.601562 22.421875 L 32.601562 14.605469 C 32.601562 13.753906 31.917969 13.0625 31.070312 13.0625 Z M 31.070312 13.0625 " fill-opacity="1" fill-rule="nonzero"/></g><g clip-path="url(#d0477cab73)"><path fill="#6bf2e5" d="M 30.335938 41.589844 L 30.335938 45.496094 C 30.335938 45.921875 29.996094 46.269531 29.574219 46.269531 L 26.09375 46.269531 L 26.09375 49.78125 C 26.09375 50.207031 25.75 50.554688 25.328125 50.554688 L 21.453125 50.554688 C 21.03125 50.554688 20.691406 50.207031 20.691406 49.78125 L 20.691406 46.269531 L 17.210938 46.269531 C 16.785156 46.269531 16.445312 45.921875 16.445312 45.496094 L 16.445312 41.589844 C 16.445312 41.164062 16.785156 40.816406 17.210938 40.816406 L 20.691406 40.816406 L 20.691406 37.304688 C 20.691406 36.878906 21.03125 36.535156 21.453125 36.535156 L 25.328125 36.535156 C 25.75 36.535156 26.09375 36.878906 26.09375 37.304688 L 26.09375 40.816406 L 29.574219 40.816406 C 29.984375 40.816406 30.335938 41.164062 30.335938 41.589844 Z M 42.851562 28.898438 L 40.003906 28.898438 L 40.003906 26.027344 C 40.003906 25.679688 39.722656 25.398438 39.382812 25.398438 L 36.214844 25.398438 C 35.871094 25.398438 35.589844 25.679688 35.589844 26.027344 L 35.589844 28.898438 L 32.742188 28.898438 C 32.398438 28.898438 32.117188 29.183594 32.117188 29.527344 L 32.117188 32.726562 C 32.117188 33.070312 32.398438 33.355469 32.742188 33.355469 L 35.589844 33.355469 L 35.589844 36.230469 C 35.589844 36.574219 35.871094 36.859375 36.214844 36.859375 L 39.382812 36.859375 C 39.722656 36.859375 40.003906 36.574219 40.003906 36.230469 L 40.003906 33.355469 L 42.851562 33.355469 C 43.195312 33.355469 43.476562 33.070312 43.476562 32.726562 L 43.476562 29.527344 C 43.488281 29.183594 43.203125 28.898438 42.851562 28.898438 Z M 42.851562 28.898438 " fill-opacity="1" fill-rule="nonzero"/></g><g fill="#00a79d" fill-opacity="1"><g transform="translate(44.962356, 30.895255)"><g><path d="M 7.796875 -10.796875 C 7.097656 -10.796875 6.46875 -10.613281 5.90625 -10.25 C 5.351562 -9.894531 4.921875 -9.414062 4.609375 -8.8125 C 4.304688 -8.207031 4.15625 -7.546875 4.15625 -6.828125 C 4.15625 -6.097656 4.3125 -5.421875 4.625 -4.796875 C 4.9375 -4.179688 5.367188 -3.691406 5.921875 -3.328125 C 6.484375 -2.972656 7.113281 -2.796875 7.8125 -2.796875 C 8.507812 -2.796875 9.140625 -2.988281 9.703125 -3.375 C 10.265625 -3.769531 10.722656 -4.34375 11.078125 -5.09375 L 14.71875 -5.09375 C 14.4375 -4.007812 13.957031 -3.066406 13.28125 -2.265625 C 12.613281 -1.460938 11.804688 -0.84375 10.859375 -0.40625 C 9.910156 0.03125 8.90625 0.25 7.84375 0.25 C 6.875 0.25 5.957031 0.0820312 5.09375 -0.25 C 4.226562 -0.59375 3.457031 -1.101562 2.78125 -1.78125 C 2.050781 -2.476562 1.519531 -3.257812 1.1875 -4.125 C 0.851562 -4.988281 0.6875 -5.945312 0.6875 -7 C 0.6875 -8.1875 0.992188 -9.304688 1.609375 -10.359375 C 2.234375 -11.410156 3.082031 -12.253906 4.15625 -12.890625 C 5.238281 -13.535156 6.414062 -13.859375 7.6875 -13.859375 C 8.625 -13.859375 9.476562 -13.722656 10.25 -13.453125 C 11.019531 -13.179688 11.742188 -12.757812 12.421875 -12.1875 C 13.722656 -11.070312 14.488281 -9.820312 14.71875 -8.4375 L 11.078125 -8.4375 C 10.785156 -9.164062 10.34375 -9.738281 9.75 -10.15625 C 9.15625 -10.582031 8.503906 -10.796875 7.796875 -10.796875 Z M 7.796875 -10.796875 "/></g></g></g><g fill="#00a79d" fill-opacity="1"><g transform="translate(59.883104, 30.895255)"><g><path d="M 6.125 0.3125 C 5.09375 0.3125 4.160156 0.078125 3.328125 -0.390625 C 2.492188 -0.867188 1.832031 -1.515625 1.34375 -2.328125 C 0.863281 -3.148438 0.625 -4.078125 0.625 -5.109375 C 0.625 -6.140625 0.867188 -7.066406 1.359375 -7.890625 C 1.847656 -8.710938 2.507812 -9.359375 3.34375 -9.828125 C 4.1875 -10.296875 5.113281 -10.53125 6.125 -10.53125 C 7.132812 -10.53125 8.054688 -10.296875 8.890625 -9.828125 C 9.734375 -9.359375 10.394531 -8.710938 10.875 -7.890625 C 11.363281 -7.066406 11.609375 -6.148438 11.609375 -5.140625 C 11.609375 -4.097656 11.363281 -3.160156 10.875 -2.328125 C 10.394531 -1.492188 9.734375 -0.84375 8.890625 -0.375 C 8.054688 0.0820312 7.132812 0.3125 6.125 0.3125 Z M 8.5625 -5.109375 C 8.5625 -5.554688 8.453125 -5.976562 8.234375 -6.375 C 8.023438 -6.769531 7.734375 -7.085938 7.359375 -7.328125 C 6.984375 -7.566406 6.5625 -7.6875 6.09375 -7.6875 C 5.65625 -7.6875 5.253906 -7.566406 4.890625 -7.328125 C 4.523438 -7.097656 4.226562 -6.78125 4 -6.375 C 3.78125 -5.976562 3.671875 -5.554688 3.671875 -5.109375 C 3.671875 -4.640625 3.773438 -4.207031 3.984375 -3.8125 C 4.203125 -3.425781 4.5 -3.113281 4.875 -2.875 C 5.25 -2.644531 5.664062 -2.53125 6.125 -2.53125 C 6.582031 -2.53125 7 -2.648438 7.375 -2.890625 C 7.75 -3.128906 8.039062 -3.441406 8.25 -3.828125 C 8.457031 -4.222656 8.5625 -4.648438 8.5625 -5.109375 Z M 8.5625 -5.109375 "/></g></g></g><g fill="#00a79d" fill-opacity="1"><g transform="translate(71.753538, 30.895255)"><g><path d="M 5.890625 -7.6875 C 5.285156 -7.6875 4.84375 -7.515625 4.5625 -7.171875 C 4.289062 -6.835938 4.15625 -6.320312 4.15625 -5.625 L 4.15625 0 L 1.109375 0 L 1.109375 -10.203125 L 3.953125 -10.203125 L 3.953125 -9.109375 L 3.984375 -9.109375 C 4.304688 -9.628906 4.691406 -10 5.140625 -10.21875 C 5.585938 -10.4375 6.128906 -10.546875 6.765625 -10.546875 C 7.421875 -10.546875 8.035156 -10.410156 8.609375 -10.140625 C 9.179688 -9.867188 9.644531 -9.429688 10 -8.828125 C 10.363281 -8.234375 10.546875 -7.457031 10.546875 -6.5 L 10.546875 0 L 7.5 0 L 7.5 -5.65625 C 7.5 -6.351562 7.367188 -6.863281 7.109375 -7.1875 C 6.847656 -7.519531 6.441406 -7.6875 5.890625 -7.6875 Z M 5.890625 -7.6875 "/></g></g></g><g fill="#00a79d" fill-opacity="1"><g transform="translate(82.999213, 30.895255)"><g><path d="M 4.5 -8.109375 C 4.238281 -8.109375 4.023438 -8.039062 3.859375 -7.90625 C 3.703125 -7.78125 3.625 -7.617188 3.625 -7.421875 C 3.625 -7.148438 3.757812 -6.925781 4.03125 -6.75 C 4.3125 -6.582031 4.8125 -6.410156 5.53125 -6.234375 C 6.707031 -5.921875 7.535156 -5.515625 8.015625 -5.015625 C 8.503906 -4.523438 8.75 -3.894531 8.75 -3.125 C 8.75 -2.425781 8.5625 -1.816406 8.1875 -1.296875 C 7.820312 -0.773438 7.320312 -0.367188 6.6875 -0.078125 C 6.0625 0.203125 5.363281 0.34375 4.59375 0.34375 C 3.4375 0.34375 2.484375 0.0390625 1.734375 -0.5625 C 0.984375 -1.175781 0.550781 -2 0.4375 -3.03125 L 3.46875 -3.03125 C 3.519531 -2.726562 3.644531 -2.492188 3.84375 -2.328125 C 4.050781 -2.171875 4.3125 -2.09375 4.625 -2.09375 C 4.90625 -2.09375 5.15625 -2.164062 5.375 -2.3125 C 5.59375 -2.457031 5.703125 -2.648438 5.703125 -2.890625 C 5.703125 -3.179688 5.570312 -3.414062 5.3125 -3.59375 C 5.0625 -3.78125 4.566406 -3.988281 3.828125 -4.21875 C 2.609375 -4.59375 1.757812 -5.023438 1.28125 -5.515625 C 0.800781 -6.003906 0.5625 -6.570312 0.5625 -7.21875 C 0.5625 -7.863281 0.742188 -8.441406 1.109375 -8.953125 C 1.484375 -9.460938 1.972656 -9.851562 2.578125 -10.125 C 3.179688 -10.40625 3.828125 -10.546875 4.515625 -10.546875 C 5.628906 -10.546875 6.539062 -10.253906 7.25 -9.671875 C 7.96875 -9.097656 8.363281 -8.316406 8.4375 -7.328125 L 5.4375 -7.328125 C 5.425781 -7.847656 5.113281 -8.109375 4.5 -8.109375 Z M 4.5 -8.109375 "/></g></g></g><g fill="#00a79d" fill-opacity="1"><g transform="translate(91.800964, 30.895255)"><g><path d="M 7.625 -1.078125 C 7.40625 -0.609375 7.082031 -0.253906 6.65625 -0.015625 C 6.226562 0.210938 5.675781 0.328125 5 0.328125 C 3.84375 0.328125 2.894531 -0.0195312 2.15625 -0.71875 C 1.425781 -1.425781 1.0625 -2.472656 1.0625 -3.859375 L 1.0625 -10.203125 L 4.109375 -10.203125 L 4.109375 -4.484375 C 4.109375 -3.804688 4.238281 -3.304688 4.5 -2.984375 C 4.757812 -2.671875 5.175781 -2.515625 5.75 -2.515625 C 6.3125 -2.515625 6.742188 -2.691406 7.046875 -3.046875 C 7.347656 -3.398438 7.5 -3.894531 7.5 -4.53125 L 7.5 -10.203125 L 10.546875 -10.203125 L 10.546875 0 L 7.65625 0 L 7.65625 -1.078125 Z M 7.625 -1.078125 "/></g></g></g><g fill="#00a79d" fill-opacity="1"><g transform="translate(103.083387, 30.895255)"><g><path d="M 4.15625 -13.59375 L 4.15625 0 L 1.109375 0 L 1.109375 -13.59375 Z M 4.15625 -13.59375 "/></g></g></g><g fill="#00a79d" fill-opacity="1"><g transform="translate(107.971191, 30.895255)"><g><path d="M 0.203125 -7.890625 L 0.203125 -10.203125 L 1.703125 -10.203125 L 1.703125 -13.59375 L 4.765625 -13.59375 L 4.765625 -10.203125 L 6.234375 -10.203125 L 6.234375 -7.890625 L 4.765625 -7.890625 L 4.765625 0 L 1.703125 0 L 1.703125 -7.890625 Z M 0.203125 -7.890625 "/></g></g></g><g fill="#00a79d" fill-opacity="1"><g transform="translate(114.053388, 30.895255)"><g><path d="M 8.78125 -13.59375 L 8.78125 -10.546875 L 4.5625 -10.546875 L 4.5625 -8.4375 L 8.65625 -8.4375 L 8.65625 -5.390625 L 4.5625 -5.390625 L 4.5625 -3.046875 L 8.78125 -3.046875 L 8.78125 0 L 1.234375 0 L 1.234375 -13.59375 Z M 8.78125 -13.59375 "/></g></g></g><g fill="#00a79d" fill-opacity="1"><g transform="translate(123.388033, 30.895255)"><g><path d="M 8.734375 -1.109375 C 8.503906 -0.660156 8.113281 -0.304688 7.5625 -0.046875 C 7.019531 0.210938 6.410156 0.34375 5.734375 0.34375 C 4.753906 0.34375 3.875 0.109375 3.09375 -0.359375 C 2.3125 -0.835938 1.703125 -1.492188 1.265625 -2.328125 C 0.835938 -3.160156 0.625 -4.085938 0.625 -5.109375 C 0.625 -6.097656 0.847656 -7.007812 1.296875 -7.84375 C 1.742188 -8.675781 2.351562 -9.332031 3.125 -9.8125 C 3.90625 -10.300781 4.773438 -10.546875 5.734375 -10.546875 C 6.367188 -10.546875 6.957031 -10.421875 7.5 -10.171875 C 8.039062 -9.921875 8.453125 -9.566406 8.734375 -9.109375 L 8.765625 -9.109375 L 8.765625 -10.203125 L 11.8125 -10.203125 L 11.8125 0 L 8.765625 0 L 8.765625 -1.109375 Z M 8.765625 -5.109375 C 8.765625 -5.578125 8.644531 -6.007812 8.40625 -6.40625 C 8.175781 -6.800781 7.863281 -7.113281 7.46875 -7.34375 C 7.070312 -7.582031 6.640625 -7.703125 6.171875 -7.703125 C 5.722656 -7.703125 5.304688 -7.582031 4.921875 -7.34375 C 4.535156 -7.113281 4.226562 -6.796875 4 -6.390625 C 3.78125 -5.984375 3.671875 -5.546875 3.671875 -5.078125 C 3.671875 -4.609375 3.785156 -4.175781 4.015625 -3.78125 C 4.242188 -3.394531 4.550781 -3.082031 4.9375 -2.84375 C 5.320312 -2.613281 5.742188 -2.5 6.203125 -2.5 C 6.671875 -2.5 7.097656 -2.613281 7.484375 -2.84375 C 7.878906 -3.082031 8.191406 -3.398438 8.421875 -3.796875 C 8.648438 -4.191406 8.765625 -4.628906 8.765625 -5.109375 Z M 8.765625 -5.109375 "/></g></g></g><g fill="#00a79d" fill-opacity="1"><g transform="translate(135.956735, 30.895255)"><g><path d="M 4.5 -8.109375 C 4.238281 -8.109375 4.023438 -8.039062 3.859375 -7.90625 C 3.703125 -7.78125 3.625 -7.617188 3.625 -7.421875 C 3.625 -7.148438 3.757812 -6.925781 4.03125 -6.75 C 4.3125 -6.582031 4.8125 -6.410156 5.53125 -6.234375 C 6.707031 -5.921875 7.535156 -5.515625 8.015625 -5.015625 C 8.503906 -4.523438 8.75 -3.894531 8.75 -3.125 C 8.75 -2.425781 8.5625 -1.816406 8.1875 -1.296875 C 7.820312 -0.773438 7.320312 -0.367188 6.6875 -0.078125 C 6.0625 0.203125 5.363281 0.34375 4.59375 0.34375 C 3.4375 0.34375 2.484375 0.0390625 1.734375 -0.5625 C 0.984375 -1.175781 0.550781 -2 0.4375 -3.03125 L 3.46875 -3.03125 C 3.519531 -2.726562 3.644531 -2.492188 3.84375 -2.328125 C 4.050781 -2.171875 4.3125 -2.09375 4.625 -2.09375 C 4.90625 -2.09375 5.15625 -2.164062 5.375 -2.3125 C 5.59375 -2.457031 5.703125 -2.648438 5.703125 -2.890625 C 5.703125 -3.179688 5.570312 -3.414062 5.3125 -3.59375 C 5.0625 -3.78125 4.566406 -3.988281 3.828125 -4.21875 C 2.609375 -4.59375 1.757812 -5.023438 1.28125 -5.515625 C 0.800781 -6.003906 0.5625 -6.570312 0.5625 -7.21875 C 0.5625 -7.863281 0.742188 -8.441406 1.109375 -8.953125 C 1.484375 -9.460938 1.972656 -9.851562 2.578125 -10.125 C 3.179688 -10.40625 3.828125 -10.546875 4.515625 -10.546875 C 5.628906 -10.546875 6.539062 -10.253906 7.25 -9.671875 C 7.96875 -9.097656 8.363281 -8.316406 8.4375 -7.328125 L 5.4375 -7.328125 C 5.425781 -7.847656 5.113281 -8.109375 4.5 -8.109375 Z M 4.5 -8.109375 "/></g></g></g><g fill="#00a79d" fill-opacity="1"><g transform="translate(144.758487, 30.895255)"><g><path d="M 0.015625 -10.203125 L 3.265625 -10.203125 L 5.3125 -4.28125 L 5.34375 -4.28125 L 7.296875 -10.203125 L 10.53125 -10.203125 L 5.421875 3.40625 L 2.1875 3.40625 L 3.796875 -0.515625 Z M 0.015625 -10.203125 "/></g></g></g></svg>