<svg xmlns="http://www.w3.org/2000/svg" xmlns:xlink="http://www.w3.org/1999/xlink" width="1920" zoomAndPan="magnify" viewBox="0 0 1440 809.999993" height="1080" preserveAspectRatio="xMidYMid meet" version="1.0"><defs><g/><clipPath id="c72ef596ec"><path d="M 506.105469 0 L 814 0 L 814 308 L 506.105469 308 Z M 506.105469 0 " clip-rule="nonzero"/></clipPath><clipPath id="a77aedf343"><path d="M 634 229 L 933.605469 229 L 933.605469 505.5 L 634 505.5 Z M 634 229 " clip-rule="nonzero"/></clipPath></defs><g clip-path="url(#c72ef596ec)"><path fill="#00a79d" d="M 796.296875 94.085938 L 719.410156 94.085938 L 719.410156 17.148438 C 719.410156 7.792969 711.84375 0.222656 702.496094 0.222656 L 616.820312 0.222656 C 607.472656 0.222656 599.90625 7.792969 599.90625 17.148438 L 599.90625 94.085938 L 523.019531 94.085938 C 513.671875 94.085938 506.105469 101.65625 506.105469 111.011719 L 506.105469 196.746094 C 506.105469 206.097656 513.671875 213.667969 523.019531 213.667969 L 599.90625 213.667969 L 599.90625 290.605469 C 599.90625 299.960938 607.472656 307.53125 616.820312 307.53125 L 702.496094 307.53125 C 711.84375 307.53125 719.410156 299.960938 719.410156 290.605469 L 719.410156 213.667969 L 796.296875 213.667969 C 805.644531 213.667969 813.210938 206.097656 813.210938 196.746094 L 813.210938 111.011719 C 813.210938 101.65625 805.644531 94.085938 796.296875 94.085938 Z M 796.296875 94.085938 " fill-opacity="1" fill-rule="nonzero"/></g><g clip-path="url(#a77aedf343)"><path fill="#6bf2e5" d="M 788.175781 406.960938 L 788.175781 449.828125 C 788.175781 454.503906 784.394531 458.289062 779.71875 458.289062 L 741.21875 458.289062 L 741.21875 496.816406 C 741.21875 501.492188 737.4375 505.277344 732.761719 505.277344 L 689.925781 505.277344 C 685.25 505.277344 681.46875 501.492188 681.46875 496.816406 L 681.46875 458.289062 L 642.96875 458.289062 C 638.296875 458.289062 634.511719 454.503906 634.511719 449.828125 L 634.511719 406.960938 C 634.511719 402.285156 638.296875 398.5 642.96875 398.5 L 681.46875 398.5 L 681.46875 359.972656 C 681.46875 355.296875 685.25 351.511719 689.925781 351.511719 L 732.761719 351.511719 C 737.4375 351.511719 741.21875 355.296875 741.21875 359.972656 L 741.21875 398.5 L 779.71875 398.5 C 784.28125 398.5 788.175781 402.285156 788.175781 406.960938 Z M 926.597656 267.78125 L 895.105469 267.78125 L 895.105469 236.269531 C 895.105469 232.484375 891.992188 229.367188 888.207031 229.367188 L 853.15625 229.367188 C 849.375 229.367188 846.257812 232.484375 846.257812 236.269531 L 846.257812 267.78125 L 814.769531 267.78125 C 810.988281 267.78125 807.871094 270.898438 807.871094 274.683594 L 807.871094 309.757812 C 807.871094 313.542969 810.988281 316.660156 814.769531 316.660156 L 846.257812 316.660156 L 846.257812 348.171875 C 846.257812 351.957031 849.375 355.074219 853.15625 355.074219 L 888.207031 355.074219 C 891.992188 355.074219 895.105469 351.957031 895.105469 348.171875 L 895.105469 316.660156 L 926.597656 316.660156 C 930.378906 316.660156 933.496094 313.542969 933.496094 309.757812 L 933.496094 274.683594 C 933.605469 270.898438 930.492188 267.78125 926.597656 267.78125 Z M 926.597656 267.78125 " fill-opacity="1" fill-rule="nonzero"/></g><g fill="#00a79d" fill-opacity="1"><g transform="translate(94.305421, 724.880655)"><g><path d="M 88.34375 -122.53125 C 80.425781 -122.53125 73.304688 -120.476562 66.984375 -116.375 C 60.671875 -112.28125 55.773438 -106.789062 52.296875 -99.90625 C 48.828125 -93.03125 47.09375 -85.566406 47.09375 -77.515625 C 47.09375 -69.179688 48.863281 -61.503906 52.40625 -54.484375 C 55.945312 -47.472656 60.878906 -41.914062 67.203125 -37.8125 C 73.523438 -33.71875 80.644531 -31.671875 88.5625 -31.671875 C 96.476562 -31.671875 103.628906 -33.894531 110.015625 -38.34375 C 116.410156 -42.789062 121.625 -49.25 125.65625 -57.71875 L 166.90625 -57.71875 C 163.707031 -45.5 158.285156 -34.835938 150.640625 -25.734375 C 143.003906 -16.628906 133.835938 -9.578125 123.140625 -4.578125 C 112.453125 0.421875 101.0625 2.921875 88.96875 2.921875 C 78 2.921875 67.617188 0.976562 57.828125 -2.90625 C 48.035156 -6.800781 39.25 -12.570312 31.46875 -20.21875 C 23.269531 -28.132812 17.257812 -36.988281 13.4375 -46.78125 C 9.613281 -56.570312 7.703125 -67.441406 7.703125 -79.390625 C 7.703125 -92.867188 11.242188 -105.578125 18.328125 -117.515625 C 25.421875 -129.460938 35.078125 -139.046875 47.296875 -146.265625 C 59.523438 -153.492188 72.789062 -157.109375 87.09375 -157.109375 C 97.789062 -157.109375 107.515625 -155.582031 116.265625 -152.53125 C 125.023438 -149.476562 133.222656 -144.6875 140.859375 -138.15625 C 155.585938 -125.507812 164.269531 -111.335938 166.90625 -95.640625 L 125.65625 -95.640625 C 122.320312 -103.972656 117.285156 -110.535156 110.546875 -115.328125 C 103.804688 -120.128906 96.40625 -122.53125 88.34375 -122.53125 Z M 88.34375 -122.53125 "/></g></g></g><g fill="#00a79d" fill-opacity="1"><g transform="translate(263.489929, 724.880655)"><g><path d="M 69.390625 3.546875 C 57.722656 3.546875 47.164062 0.875 37.71875 -4.46875 C 28.269531 -9.820312 20.800781 -17.148438 15.3125 -26.453125 C 9.820312 -35.765625 7.078125 -46.253906 7.078125 -57.921875 C 7.078125 -69.597656 9.851562 -80.125 15.40625 -89.5 C 20.96875 -98.875 28.503906 -106.203125 38.015625 -111.484375 C 47.535156 -116.765625 57.992188 -119.40625 69.390625 -119.40625 C 80.921875 -119.40625 91.441406 -116.765625 100.953125 -111.484375 C 110.472656 -106.203125 117.972656 -98.875 123.453125 -89.5 C 128.941406 -80.125 131.6875 -69.738281 131.6875 -58.34375 C 131.6875 -46.539062 128.941406 -35.914062 123.453125 -26.46875 C 117.972656 -17.019531 110.472656 -9.65625 100.953125 -4.375 C 91.441406 0.90625 80.921875 3.546875 69.390625 3.546875 Z M 97.109375 -57.921875 C 97.109375 -63.066406 95.890625 -67.859375 93.453125 -72.296875 C 91.023438 -76.742188 87.691406 -80.320312 83.453125 -83.03125 C 79.210938 -85.738281 74.457031 -87.09375 69.1875 -87.09375 C 64.175781 -87.09375 59.585938 -85.773438 55.421875 -83.140625 C 51.253906 -80.503906 47.921875 -76.925781 45.421875 -72.40625 C 42.921875 -67.894531 41.671875 -63.066406 41.671875 -57.921875 C 41.671875 -52.648438 42.882812 -47.789062 45.3125 -43.34375 C 47.75 -38.894531 51.082031 -35.347656 55.3125 -32.703125 C 59.550781 -30.066406 64.242188 -28.75 69.390625 -28.75 C 74.671875 -28.75 79.425781 -30.101562 83.65625 -32.8125 C 87.894531 -35.519531 91.195312 -39.097656 93.5625 -43.546875 C 95.925781 -47.992188 97.109375 -52.785156 97.109375 -57.921875 Z M 97.109375 -57.921875 "/></g></g></g><g fill="#00a79d" fill-opacity="1"><g transform="translate(398.087305, 724.880655)"><g><path d="M 66.890625 -87.09375 C 59.941406 -87.09375 54.90625 -85.179688 51.78125 -81.359375 C 48.65625 -77.546875 47.09375 -71.679688 47.09375 -63.765625 L 47.09375 0 L 12.5 0 L 12.5 -115.640625 L 44.796875 -115.640625 L 44.796875 -103.359375 L 45.21875 -103.359375 C 48.832031 -109.191406 53.171875 -113.359375 58.234375 -115.859375 C 63.304688 -118.359375 69.457031 -119.609375 76.6875 -119.609375 C 84.1875 -119.609375 91.164062 -118.078125 97.625 -115.015625 C 104.082031 -111.960938 109.359375 -107.03125 113.453125 -100.21875 C 117.554688 -93.414062 119.609375 -84.597656 119.609375 -73.765625 L 119.609375 0 L 85.015625 0 L 85.015625 -64.171875 C 85.015625 -72.097656 83.554688 -77.898438 80.640625 -81.578125 C 77.722656 -85.253906 73.140625 -87.09375 66.890625 -87.09375 Z M 66.890625 -87.09375 "/></g></g></g><g fill="#00a79d" fill-opacity="1"><g transform="translate(525.600604, 724.880655)"><g><path d="M 51.046875 -91.890625 C 48.128906 -91.890625 45.734375 -91.160156 43.859375 -89.703125 C 41.984375 -88.242188 41.046875 -86.40625 41.046875 -84.1875 C 41.046875 -81.125 42.609375 -78.617188 45.734375 -76.671875 C 48.859375 -74.734375 54.519531 -72.722656 62.71875 -70.640625 C 76.050781 -67.171875 85.460938 -62.617188 90.953125 -56.984375 C 96.441406 -51.359375 99.1875 -44.171875 99.1875 -35.421875 C 99.1875 -27.503906 97.101562 -20.59375 92.9375 -14.6875 C 88.769531 -8.78125 83.109375 -4.195312 75.953125 -0.9375 C 68.796875 2.320312 60.84375 3.953125 52.09375 3.953125 C 39.03125 3.953125 28.226562 0.484375 19.6875 -6.453125 C 11.144531 -13.398438 6.25 -22.707031 5 -34.375 L 39.390625 -34.375 C 39.941406 -30.90625 41.363281 -28.265625 43.65625 -26.453125 C 45.945312 -24.648438 48.898438 -23.75 52.515625 -23.75 C 55.703125 -23.75 58.507812 -24.582031 60.9375 -26.25 C 63.375 -27.914062 64.59375 -30.070312 64.59375 -32.71875 C 64.59375 -36.050781 63.164062 -38.757812 60.3125 -40.84375 C 57.46875 -42.925781 51.8125 -45.285156 43.34375 -47.921875 C 29.59375 -52.085938 20.003906 -56.945312 14.578125 -62.5 C 9.160156 -68.0625 6.453125 -74.523438 6.453125 -81.890625 C 6.453125 -89.253906 8.535156 -95.816406 12.703125 -101.578125 C 16.878906 -107.347656 22.40625 -111.796875 29.28125 -114.921875 C 36.15625 -118.046875 43.484375 -119.609375 51.265625 -119.609375 C 63.898438 -119.609375 74.242188 -116.34375 82.296875 -109.8125 C 90.359375 -103.28125 94.804688 -94.390625 95.640625 -83.140625 L 61.671875 -83.140625 C 61.535156 -88.972656 57.992188 -91.890625 51.046875 -91.890625 Z M 51.046875 -91.890625 "/></g></g></g><g fill="#00a79d" fill-opacity="1"><g transform="translate(625.402565, 724.880655)"><g><path d="M 86.46875 -12.296875 C 83.96875 -6.878906 80.285156 -2.847656 75.421875 -0.203125 C 70.566406 2.429688 64.316406 3.75 56.671875 3.75 C 43.617188 3.75 32.921875 -0.242188 24.578125 -8.234375 C 16.242188 -16.222656 12.078125 -28.066406 12.078125 -43.765625 L 12.078125 -115.640625 L 46.671875 -115.640625 L 46.671875 -50.84375 C 46.671875 -43.207031 48.128906 -37.582031 51.046875 -33.96875 C 53.960938 -30.351562 58.6875 -28.546875 65.21875 -28.546875 C 71.613281 -28.546875 76.507812 -30.5625 79.90625 -34.59375 C 83.3125 -38.625 85.015625 -44.25 85.015625 -51.46875 L 85.015625 -115.640625 L 119.609375 -115.640625 L 119.609375 0 L 86.890625 0 L 86.890625 -12.296875 Z M 86.46875 -12.296875 "/></g></g></g><g fill="#00a79d" fill-opacity="1"><g transform="translate(753.332554, 724.880655)"><g><path d="M 47.09375 -154.203125 L 47.09375 0 L 12.5 0 L 12.5 -154.203125 Z M 47.09375 -154.203125 "/></g></g></g><g fill="#00a79d" fill-opacity="1"><g transform="translate(808.754762, 724.880655)"><g><path d="M 2.296875 -89.390625 L 2.296875 -115.640625 L 19.375 -115.640625 L 19.375 -154.203125 L 53.96875 -154.203125 L 53.96875 -115.640625 L 70.640625 -115.640625 L 70.640625 -89.390625 L 53.96875 -89.390625 L 53.96875 0 L 19.375 0 L 19.375 -89.390625 Z M 2.296875 -89.390625 "/></g></g></g><g fill="#00a79d" fill-opacity="1"><g transform="translate(877.720034, 724.880655)"><g><path d="M 99.609375 -154.203125 L 99.609375 -119.609375 L 51.671875 -119.609375 L 51.671875 -95.640625 L 98.140625 -95.640625 L 98.140625 -61.046875 L 51.671875 -61.046875 L 51.671875 -34.59375 L 99.609375 -34.59375 L 99.609375 0 L 13.96875 0 L 13.96875 -154.203125 Z M 99.609375 -154.203125 "/></g></g></g><g fill="#00a79d" fill-opacity="1"><g transform="translate(983.564408, 724.880655)"><g><path d="M 98.984375 -12.5 C 96.484375 -7.5 92.101562 -3.503906 85.84375 -0.515625 C 79.59375 2.460938 72.648438 3.953125 65.015625 3.953125 C 53.898438 3.953125 43.929688 1.242188 35.109375 -4.171875 C 26.285156 -9.585938 19.40625 -17.019531 14.46875 -26.46875 C 9.539062 -35.914062 7.078125 -46.398438 7.078125 -57.921875 C 7.078125 -69.179688 9.613281 -79.53125 14.6875 -88.96875 C 19.757812 -98.414062 26.707031 -105.882812 35.53125 -111.375 C 44.351562 -116.863281 54.179688 -119.609375 65.015625 -119.609375 C 72.234375 -119.609375 78.898438 -118.179688 85.015625 -115.328125 C 91.128906 -112.484375 95.785156 -108.492188 98.984375 -103.359375 L 99.390625 -103.359375 L 99.390625 -115.640625 L 133.984375 -115.640625 L 133.984375 0 L 99.390625 0 L 99.390625 -12.5 Z M 99.390625 -57.921875 C 99.390625 -63.203125 98.070312 -68.097656 95.4375 -72.609375 C 92.800781 -77.128906 89.222656 -80.707031 84.703125 -83.34375 C 80.191406 -85.988281 75.296875 -87.3125 70.015625 -87.3125 C 64.867188 -87.3125 60.109375 -85.988281 55.734375 -83.34375 C 51.359375 -80.707031 47.921875 -77.097656 45.421875 -72.515625 C 42.921875 -67.929688 41.671875 -62.929688 41.671875 -57.515625 C 41.671875 -52.234375 42.957031 -47.367188 45.53125 -42.921875 C 48.101562 -38.472656 51.578125 -34.929688 55.953125 -32.296875 C 60.328125 -29.660156 65.15625 -28.34375 70.4375 -28.34375 C 75.707031 -28.34375 80.566406 -29.660156 85.015625 -32.296875 C 89.460938 -34.929688 92.96875 -38.503906 95.53125 -43.015625 C 98.101562 -47.535156 99.390625 -52.503906 99.390625 -57.921875 Z M 99.390625 -57.921875 "/></g></g></g><g fill="#00a79d" fill-opacity="1"><g transform="translate(1126.079364, 724.880655)"><g><path d="M 51.046875 -91.890625 C 48.128906 -91.890625 45.734375 -91.160156 43.859375 -89.703125 C 41.984375 -88.242188 41.046875 -86.40625 41.046875 -84.1875 C 41.046875 -81.125 42.609375 -78.617188 45.734375 -76.671875 C 48.859375 -74.734375 54.519531 -72.722656 62.71875 -70.640625 C 76.050781 -67.171875 85.460938 -62.617188 90.953125 -56.984375 C 96.441406 -51.359375 99.1875 -44.171875 99.1875 -35.421875 C 99.1875 -27.503906 97.101562 -20.59375 92.9375 -14.6875 C 88.769531 -8.78125 83.109375 -4.195312 75.953125 -0.9375 C 68.796875 2.320312 60.84375 3.953125 52.09375 3.953125 C 39.03125 3.953125 28.226562 0.484375 19.6875 -6.453125 C 11.144531 -13.398438 6.25 -22.707031 5 -34.375 L 39.390625 -34.375 C 39.941406 -30.90625 41.363281 -28.265625 43.65625 -26.453125 C 45.945312 -24.648438 48.898438 -23.75 52.515625 -23.75 C 55.703125 -23.75 58.507812 -24.582031 60.9375 -26.25 C 63.375 -27.914062 64.59375 -30.070312 64.59375 -32.71875 C 64.59375 -36.050781 63.164062 -38.757812 60.3125 -40.84375 C 57.46875 -42.925781 51.8125 -45.285156 43.34375 -47.921875 C 29.59375 -52.085938 20.003906 -56.945312 14.578125 -62.5 C 9.160156 -68.0625 6.453125 -74.523438 6.453125 -81.890625 C 6.453125 -89.253906 8.535156 -95.816406 12.703125 -101.578125 C 16.878906 -107.347656 22.40625 -111.796875 29.28125 -114.921875 C 36.15625 -118.046875 43.484375 -119.609375 51.265625 -119.609375 C 63.898438 -119.609375 74.242188 -116.34375 82.296875 -109.8125 C 90.359375 -103.28125 94.804688 -94.390625 95.640625 -83.140625 L 61.671875 -83.140625 C 61.535156 -88.972656 57.992188 -91.890625 51.046875 -91.890625 Z M 51.046875 -91.890625 "/></g></g></g><g fill="#00a79d" fill-opacity="1"><g transform="translate(1225.881324, 724.880655)"><g><path d="M 0.203125 -115.640625 L 37.09375 -115.640625 L 60.21875 -48.546875 L 60.640625 -48.546875 L 82.71875 -115.640625 L 119.40625 -115.640625 L 61.46875 38.546875 L 24.796875 38.546875 L 43.140625 -5.828125 Z M 0.203125 -115.640625 "/></g></g></g></svg>