<?xml version="1.0" encoding="UTF-8" standalone="no"?>
<!DOCTYPE svg PUBLIC "-//W3C//DTD SVG 1.1//EN" "http://www.w3.org/Graphics/SVG/1.1/DTD/svg11.dtd">
<svg xmlns="http://www.w3.org/2000/svg" version="1.1" viewBox="0.00 0.00 200.00 197.00">
<path fill="#ea5455" d="
  M 96.89 0.00
  L 97.91 0.00
  Q 96.41 7.48 91.57 13.38
  Q 91.25 13.78 90.77 13.59
  Q 84.21 10.96 80.63 5.70
  A 0.50 0.50 0.0 0 1 80.80 4.97
  Q 88.19 0.96 96.89 0.00
  Z"
/>
<path fill="#ea5455" d="
  M 101.00 0.00
  L 101.99 0.00
  L 105.14 0.52
  Q 105.67 0.61 105.51 1.12
  Q 103.33 8.02 102.44 15.84
  A 0.66 0.66 0.0 0 1 101.66 16.41
  L 95.01 15.12
  Q 94.27 14.98 94.71 14.37
  Q 99.44 7.80 101.00 0.00
  Z"
/>
<path fill="#ea5455" d="
  M 105.29 15.34
  L 108.20 1.93
  A 1.08 1.08 0.0 0 1 109.58 1.13
  L 114.75 2.79
  A 1.08 1.08 0.0 0 1 115.44 4.17
  L 111.51 15.77
  A 1.08 1.08 0.0 0 1 110.52 16.51
  L 106.39 16.64
  A 1.08 1.08 0.0 0 1 105.29 15.34
  Z"
/>
<path fill="#ea5455" d="
  M 114.93 15.92
  Q 114.48 16.01 114.66 15.58
  Q 116.82 10.38 118.14 5.15
  Q 118.31 4.47 118.93 4.81
  Q 123.41 7.29 127.27 10.83
  Q 127.78 11.29 127.17 11.62
  Q 121.74 14.59 114.93 15.92
  Z"
/>
<path fill="#ea5455" d="
  M 89.05 16.12
  A 0.21 0.20 -57.7 0 1 89.12 16.44
  Q 85.65 20.40 80.60 23.50
  Q 80.10 23.81 79.88 23.27
  Q 77.63 17.64 72.03 12.36
  Q 71.56 11.91 72.05 11.50
  L 77.17 7.16
  Q 77.74 6.68 78.15 7.30
  Q 81.83 12.91 89.05 16.12
  Z"
/>
<path fill="#ea5455" d="
  M 107.50 30.96
  L 113.06 19.65
  Q 113.28 19.19 113.78 19.12
  Q 122.33 17.88 129.48 13.68
  Q 129.92 13.42 130.22 13.84
  L 134.48 19.76
  Q 134.80 20.21 134.31 20.47
  Q 121.43 27.25 107.77 31.28
  Q 107.27 31.42 107.50 30.96
  Z"
/>
<path fill="#ea5455" d="
  M 61.82 28.74
  C 63.23 23.57 66.20 18.36 69.48 14.43
  A 0.30 0.30 0.0 0 1 69.92 14.40
  Q 75.09 19.13 77.38 24.84
  A 0.45 0.44 -25.0 0 1 77.17 25.41
  Q 70.24 28.85 62.27 29.30
  Q 61.65 29.33 61.82 28.74
  Z"
/>
<path fill="#ea5455" d="
  M 101.81 19.91
  C 101.44 24.03 101.53 28.19 102.08 32.25
  Q 102.18 32.93 101.51 33.09
  Q 91.47 35.52 81.69 36.86
  Q 81.00 36.95 81.13 36.26
  Q 81.96 31.77 81.01 27.36
  Q 80.89 26.81 81.39 26.53
  Q 87.22 23.23 92.05 17.71
  A 0.66 0.64 28.0 0 1 92.73 17.51
  Q 97.01 18.81 101.23 19.21
  Q 101.87 19.27 101.81 19.91
  Z"
/>
<path fill="#ea5455" d="
  M 109.62 20.02
  L 105.22 28.88
  A 0.34 0.34 0.0 0 1 104.57 28.73
  L 104.71 19.92
  A 0.34 0.34 0.0 0 1 105.05 19.59
  L 109.31 19.53
  A 0.34 0.34 0.0 0 1 109.62 20.02
  Z"
/>
<path fill="#ea5455" d="
  M 135.58 23.19
  Q 136.19 22.88 136.41 23.53
  L 138.85 30.66
  Q 139.10 31.38 138.39 31.66
  Q 123.01 37.72 113.91 51.83
  A 0.37 0.37 0.0 0 1 113.30 51.85
  Q 107.71 44.26 105.70 35.47
  A 0.52 0.52 0.0 0 1 106.07 34.85
  Q 120.38 31.04 135.58 23.19
  Z"
/>
<path fill="#ea5455" d="
  M 77.49 28.50
  Q 78.23 28.16 78.34 28.97
  Q 78.78 32.50 78.18 36.50
  Q 78.06 37.33 77.23 37.40
  L 60.50 38.79
  A 0.38 0.38 0.0 0 1 60.09 38.37
  L 60.70 32.76
  Q 60.75 32.29 61.22 32.29
  Q 69.39 32.27 77.49 28.50
  Z"
/>
<path fill="#ea5455" d="
  M 138.77 34.61
  Q 139.51 34.29 139.59 35.09
  Q 141.41 52.30 130.47 65.64
  Q 130.11 66.08 129.62 65.78
  Q 122.14 61.05 116.07 55.00
  Q 115.68 54.61 115.97 54.13
  Q 123.72 41.21 138.77 34.61
  Z"
/>
<path fill="#ea5455" d="
  M 77.84 46.56
  L 80.26 40.46
  Q 80.45 39.99 80.95 39.93
  Q 91.02 38.67 99.96 36.50
  Q 100.84 36.28 100.35 37.05
  Q 94.97 45.44 89.04 53.24
  Q 88.67 53.73 88.21 53.31
  Q 83.82 49.20 78.09 47.12
  Q 77.67 46.97 77.84 46.56
  Z"
/>
<path fill="#ea5455" d="
  M 111.78 55.44
  C 109.85 59.11 108.39 62.93 107.43 67.06
  Q 107.31 67.55 106.81 67.54
  Q 102.93 67.44 99.40 68.35
  Q 98.83 68.49 98.60 67.96
  Q 95.96 61.81 91.19 56.26
  Q 90.78 55.79 91.16 55.29
  Q 97.61 46.86 102.99 38.41
  A 0.27 0.26 -36.2 0 1 103.47 38.48
  Q 105.76 46.91 111.69 54.48
  Q 112.04 54.94 111.78 55.44
  Z"
/>
<path fill="#ea5455" d="
  M 76.91 41.07
  L 74.97 45.58
  Q 74.76 46.08 74.24 45.95
  Q 67.18 44.30 60.85 45.49
  Q 60.55 45.55 60.52 45.24
  L 60.19 42.08
  Q 60.16 41.82 60.43 41.79
  L 76.46 40.43
  Q 77.22 40.36 76.91 41.07
  Z"
/>
<path fill="#ea5455" d="
  M 64.99 59.22
  C 63.39 55.91 61.93 52.50 61.17 48.94
  Q 61.05 48.37 61.62 48.30
  Q 67.38 47.57 72.68 48.58
  A 0.46 0.46 0.0 0 1 72.97 49.30
  L 65.91 59.30
  Q 65.39 60.04 64.99 59.22
  Z"
/>
<path fill="#ea5455" d="
  M 76.75 49.73
  C 80.36 51.30 83.66 53.10 86.43 55.72
  Q 86.83 56.10 86.50 56.54
  Q 80.68 64.39 75.14 70.37
  Q 74.72 70.82 74.26 70.42
  Q 70.41 67.08 67.36 62.90
  Q 67.01 62.42 67.40 61.97
  Q 72.01 56.46 75.89 50.00
  Q 76.20 49.49 76.75 49.73
  Z"
/>
<path fill="#ea5455" d="
  M 121.69 72.68
  C 118.34 70.50 114.72 68.89 110.79 68.03
  Q 110.23 67.91 110.37 67.35
  Q 111.69 62.30 113.81 57.92
  Q 114.11 57.31 114.59 57.78
  Q 120.35 63.32 127.46 67.88
  Q 128.13 68.30 127.52 68.81
  L 122.89 72.62
  Q 122.31 73.09 121.69 72.68
  Z"
/>
<path fill="#ea5455" d="
  M 95.38 69.61
  C 91.33 70.98 87.62 73.41 84.58 76.41
  Q 84.25 76.73 83.86 76.51
  L 77.46 72.94
  Q 77.02 72.69 77.37 72.32
  Q 82.98 66.39 88.48 58.72
  Q 88.86 58.18 89.30 58.68
  Q 92.81 62.70 95.74 68.75
  Q 96.04 69.38 95.38 69.61
  Z"
/>
<path fill="#ea5455" d="
  M 106.48 70.75
  L 106.32 79.08
  A 0.32 0.32 0.0 0 1 106.03 79.39
  L 102.70 79.72
  A 0.32 0.32 0.0 0 1 102.36 79.49
  L 100.11 71.47
  A 0.32 0.32 0.0 0 1 100.38 71.07
  L 106.13 70.42
  A 0.32 0.32 0.0 0 1 106.48 70.75
  Z"
/>
<path fill="#ea5455" d="
  M 110.53 70.75
  L 118.40 73.99
  A 0.87 0.87 0.0 0 1 118.38 75.61
  L 110.39 78.58
  A 0.87 0.87 0.0 0 1 109.22 77.75
  L 109.32 71.54
  A 0.87 0.87 0.0 0 1 110.53 70.75
  Z"
/>
<path fill="#ea5455" d="
  M 98.12 79.93
  L 88.71 78.39
  A 0.90 0.90 0.0 0 1 88.40 76.73
  L 96.04 72.25
  A 0.90 0.90 0.0 0 1 97.36 72.77
  L 99.13 78.79
  A 0.90 0.90 0.0 0 1 98.12 79.93
  Z"
/>
<path fill="#ea5455" d="
  M 84.11 164.69
  L 83.73 150.30
  A 1.12 1.11 0.8 0 0 82.68 149.22
  L 77.96 148.96
  A 2.03 2.02 1.4 0 1 76.05 146.96
  L 75.97 140.21
  A 1.93 1.92 90.0 0 1 77.91 138.26
  L 94.74 138.42
  Q 96.79 138.44 96.78 140.49
  L 96.49 175.33
  A 1.82 1.81 84.3 0 1 95.05 177.10
  Q 87.45 178.69 79.63 177.95
  C 66.52 176.71 56.74 165.68 52.88 153.34
  C 47.78 137.03 51.36 119.38 64.24 108.02
  Q 74.14 99.28 88.85 99.87
  C 91.54 99.98 96.00 100.55 96.01 104.08
  Q 96.03 109.09 95.98 113.63
  A 0.61 0.61 0.0 0 1 95.27 114.22
  C 85.90 112.73 76.81 110.83 70.38 119.80
  C 62.36 130.98 63.35 146.61 69.33 158.03
  Q 73.65 166.30 83.53 165.35
  Q 84.13 165.30 84.11 164.69
  Z"
/>
<path fill="#ea5455" d="
  M 24.97 113.09
  C 20.96 111.28 15.11 111.97 13.92 116.95
  C 12.68 122.11 14.66 126.69 18.77 130.03
  C 26.29 136.14 36.15 143.84 37.90 154.07
  Q 39.62 164.09 33.88 171.29
  C 26.74 180.26 12.78 179.83 2.68 176.06
  Q -0.10 175.02 0.28 172.20
  Q 0.80 168.30 2.55 163.80
  C 3.18 162.21 4.84 162.47 5.93 163.34
  C 9.86 166.49 13.60 168.27 18.86 166.89
  C 28.24 164.43 26.19 152.66 20.22 147.99
  Q 11.85 141.42 4.72 132.79
  Q 0.83 128.09 1.22 121.16
  C 2.14 105.06 16.15 96.36 31.40 102.24
  Q 33.99 103.24 33.12 105.92
  Q 31.95 109.50 30.40 113.64
  A 1.69 1.68 23.4 0 1 28.06 114.56
  Q 26.53 113.79 24.97 113.09
  Z"
/>
<path fill="#ea5455" d="
  M 148.55 177.23
  C 134.40 179.64 119.09 174.63 112.98 160.96
  Q 110.22 154.80 109.47 145.97
  C 108.55 135.30 109.65 123.87 115.40 115.05
  C 121.97 105.01 134.19 98.90 146.26 100.45
  Q 148.33 100.72 149.58 102.33
  A 1.21 1.16 27.5 0 1 149.82 103.04
  L 149.83 112.97
  A 0.87 0.87 0.0 0 1 148.84 113.83
  C 141.96 112.83 134.54 112.70 129.32 117.68
  Q 125.23 121.59 123.38 127.71
  Q 118.92 142.43 125.42 156.23
  C 130.48 166.97 138.37 166.07 148.57 165.14
  A 1.40 1.40 0.0 0 1 150.10 166.59
  L 149.76 175.85
  A 1.46 1.45 -3.9 0 1 148.55 177.23
  Z"
/>
<path fill="#ea5455" d="
  M 174.69 151.02
  A 1.17 1.17 0.0 0 0 174.09 152.06
  Q 174.42 165.08 174.06 176.98
  Q 174.02 178.13 172.87 178.14
  L 163.57 178.18
  A 1.04 1.04 0.0 0 1 162.52 177.14
  Q 162.46 147.00 162.46 117.94
  C 162.46 112.66 162.02 107.41 162.51 102.09
  A 1.19 1.18 1.4 0 1 163.65 101.01
  Q 170.48 100.78 177.40 100.88
  C 192.43 101.09 199.02 110.85 199.74 124.80
  C 200.54 140.47 193.48 151.21 175.91 150.73
  Q 175.26 150.71 174.69 151.02
  Z
  M 174.22 113.74
  L 174.22 139.26
  A 1.28 1.28 0.0 0 0 175.50 140.54
  L 175.81 140.54
  A 12.22 11.11 -90.0 0 0 186.92 128.32
  L 186.92 124.68
  A 12.22 11.11 90.0 0 0 175.81 112.46
  L 175.50 112.46
  A 1.28 1.28 0.0 0 0 174.22 113.74
  Z"
/>
<path fill="#ea5455" d="
  M 128.58 197.00
  L 128.26 197.00
  Q 128.17 196.81 128.04 196.65
  Q 127.69 196.21 127.12 196.28
  L 123.66 196.74
  Q 123.13 196.81 122.67 196.53
  L 122.24 196.27
  Q 121.71 195.95 121.34 196.45
  Q 121.07 196.81 120.63 196.73
  Q 120.12 196.63 120.05 196.11
  Q 119.57 192.38 119.98 189.46
  Q 120.06 188.91 120.58 188.67
  Q 121.31 188.32 120.84 188.98
  Q 120.77 189.09 120.66 189.17
  Q 120.56 189.24 120.57 189.36
  Q 120.58 191.80 121.21 193.79
  Q 121.35 194.24 121.29 194.71
  Q 121.22 195.24 121.44 195.74
  Q 121.72 196.35 122.26 195.95
  Q 122.49 195.78 122.59 195.52
  Q 122.69 195.23 122.61 194.93
  Q 122.07 192.88 121.49 190.89
  A 0.60 0.60 0.0 0 1 121.96 190.13
  L 122.30 190.07
  Q 123.10 189.92 123.24 190.73
  L 123.76 193.70
  Q 123.91 194.57 124.12 193.71
  Q 124.45 192.33 124.12 191.02
  Q 123.96 190.36 124.64 190.42
  L 127.27 190.69
  Q 127.73 190.74 128.04 190.40
  Q 128.48 189.90 129.08 190.22
  Q 129.74 190.57 129.82 191.22
  Q 129.90 191.92 129.24 191.69
  Q 128.79 191.54 128.44 191.21
  Q 127.98 190.78 127.72 191.36
  Q 127.64 191.54 127.74 191.71
  Q 128.43 192.88 128.24 194.35
  A 0.84 0.83 72.5 0 1 127.99 194.84
  Q 127.72 195.12 127.73 195.49
  Q 127.76 196.12 128.34 195.87
  Q 128.67 195.73 128.84 195.41
  A 0.65 0.63 19.4 0 1 129.54 195.09
  Q 129.72 195.14 129.84 195.26
  Q 130.08 195.49 129.96 195.79
  Q 129.68 196.53 128.58 197.00
  Z
  M 126.49 192.68
  Q 127.05 191.68 126.09 191.12
  A 0.50 0.50 0.0 0 0 125.34 191.49
  Q 125.20 192.48 125.25 193.51
  Q 125.27 194.02 125.09 194.51
  Q 124.99 194.77 124.75 194.92
  Q 124.19 195.26 124.80 195.51
  Q 125.75 195.89 126.82 195.51
  Q 127.49 195.28 127.06 194.72
  Q 126.81 194.40 126.36 194.37
  Q 125.55 194.31 126.22 193.85
  Q 126.49 193.66 126.77 193.81
  Q 126.99 193.93 127.17 193.75
  Q 127.44 193.48 127.30 193.06
  A 0.14 0.13 63.5 0 0 127.10 192.99
  Q 126.98 193.06 126.85 193.11
  Q 126.11 193.36 126.49 192.68
  Z"
/>
<path fill="#ea5455" d="
  M 27.12 197.00
  L 26.23 197.00
  Q 25.69 195.93 24.69 196.30
  A 1.52 1.51 43.4 0 1 23.76 196.32
  Q 22.45 195.93 21.75 197.00
  L 21.02 197.00
  Q 19.72 195.85 20.30 194.92
  Q 20.76 194.20 20.95 195.03
  Q 21.08 195.62 21.61 195.85
  Q 21.80 195.94 21.93 195.77
  L 22.09 195.57
  Q 22.35 195.24 22.06 194.93
  C 20.87 193.70 19.04 191.44 20.90 190.08
  A 0.73 0.72 45.3 0 1 21.76 190.09
  L 22.57 190.69
  Q 23.02 191.02 23.49 190.71
  Q 24.28 190.19 25.01 190.77
  A 0.39 0.39 0.0 0 0 25.57 190.69
  Q 26.38 189.53 27.52 190.33
  Q 28.01 190.68 27.94 191.30
  Q 27.89 191.78 27.57 192.13
  Q 27.05 192.69 26.92 191.94
  Q 26.83 191.42 26.38 191.15
  A 0.40 0.40 0.0 0 0 25.78 191.41
  Q 25.69 191.83 26.01 192.08
  C 27.51 193.29 28.90 195.42 27.12 197.00
  Z
  M 24.32 192.51
  Q 24.67 194.18 25.96 195.66
  A 0.50 0.50 0.0 0 0 26.83 195.40
  Q 26.94 194.61 26.35 193.94
  Q 26.11 193.66 25.99 193.31
  Q 25.40 191.55 23.68 191.13
  Q 22.88 190.93 23.16 191.71
  Q 23.20 191.85 23.25 191.99
  Q 23.48 192.81 22.80 192.31
  Q 22.28 191.93 21.95 191.33
  Q 21.68 190.86 21.14 191.37
  A 0.67 0.67 0.0 0 0 21.11 192.32
  Q 22.49 193.79 23.11 195.33
  Q 23.29 195.79 23.77 195.71
  Q 24.05 195.67 24.33 195.73
  Q 24.92 195.85 24.80 195.26
  Q 24.67 194.61 24.07 194.29
  Q 23.63 194.06 23.60 193.57
  Q 23.56 192.97 23.85 192.44
  Q 24.18 191.82 24.32 192.51
  Z"
/>
<path fill="#ea5455" d="
  M 30.44 197.00
  Q 30.16 197.00 29.87 197.00
  L 29.76 191.72
  Q 29.75 191.17 29.26 190.95
  L 28.95 190.81
  Q 28.00 190.38 29.02 190.15
  Q 30.34 189.84 31.59 190.13
  Q 32.16 190.26 31.72 190.65
  Q 31.48 190.87 31.19 190.86
  Q 30.73 190.86 30.71 191.32
  L 30.44 197.00
  Z"
/>
<path fill="#ea5455" d="
  M 34.67 197.00
  L 32.83 197.00
  L 32.80 190.87
  Q 32.79 190.33 33.29 190.14
  Q 34.00 189.86 34.74 190.10
  A 0.36 0.35 -37.8 0 1 34.65 190.79
  Q 33.89 190.84 33.58 191.44
  Q 33.22 192.12 33.97 192.28
  Q 34.48 192.38 34.88 192.63
  Q 35.60 193.09 34.77 193.25
  Q 34.51 193.30 34.29 193.17
  A 0.38 0.38 0.0 0 0 33.73 193.40
  Q 33.43 194.50 33.50 195.63
  Q 33.54 196.12 34.03 196.12
  L 34.63 196.12
  Q 35.24 196.13 34.97 196.67
  Q 34.89 196.83 34.67 197.00
  Z"
/>
<path fill="#ea5455" d="
  M 37.66 192.47
  Q 37.72 192.76 38.01 192.68
  L 38.27 192.61
  Q 38.32 192.60 38.31 192.54
  Q 37.91 190.75 39.09 190.08
  A 0.68 0.68 0.0 0 1 40.11 190.70
  L 39.83 196.30
  Q 39.80 196.94 39.19 196.72
  Q 39.01 196.65 38.85 196.53
  Q 38.24 196.06 37.61 196.51
  Q 36.98 196.96 36.35 196.57
  Q 35.77 196.22 35.72 195.52
  Q 35.63 194.49 36.06 193.64
  Q 36.26 193.26 36.11 192.85
  Q 35.69 191.69 35.81 190.52
  Q 35.86 190.01 36.37 190.03
  L 36.69 190.05
  Q 37.43 190.08 37.46 190.82
  Q 37.50 191.71 37.66 192.47
  Z"
/>
<path fill="#ea5455" d="
  M 44.06 197.00
  Q 43.86 197.00 43.65 197.00
  Q 43.11 196.44 43.09 195.43
  Q 43.07 194.75 42.57 194.55
  Q 41.95 194.28 41.88 194.96
  L 41.72 196.52
  A 0.28 0.28 0.0 0 1 41.44 196.77
  L 41.17 196.78
  A 0.22 0.22 0.0 0 1 40.95 196.56
  Q 40.95 193.56 41.65 191.20
  Q 42.43 188.54 43.18 191.21
  Q 43.83 193.51 44.06 197.00
  Z"
/>
<path fill="#ea5455" d="
  M 49.03 197.00
  L 47.43 197.00
  L 47.35 190.88
  A 0.89 0.89 0.0 0 1 48.64 190.07
  Q 49.89 190.69 50.05 191.74
  Q 50.57 195.21 49.03 197.00
  Z
  M 48.52 191.10
  L 48.22 191.13
  Q 47.97 191.15 47.98 191.40
  Q 48.06 193.58 48.08 195.70
  Q 48.08 195.88 48.26 195.93
  Q 49.03 196.14 49.01 195.34
  L 48.91 191.45
  A 0.36 0.36 0.0 0 0 48.52 191.10
  Z"
/>
<path fill="#ea5455" d="
  M 53.20 197.00
  L 50.90 197.00
  L 50.89 190.77
  Q 50.89 190.18 51.46 190.02
  Q 52.04 189.85 52.65 190.06
  Q 53.72 190.41 52.66 190.79
  Q 52.03 191.02 51.80 191.51
  Q 51.55 192.07 52.12 192.29
  L 52.73 192.52
  Q 53.45 192.80 52.75 193.14
  Q 50.23 194.36 53.20 197.00
  Z"
/>
<path fill="#ea5455" d="
  M 58.03 197.00
  L 56.66 197.00
  Q 55.82 193.97 56.33 190.92
  A 1.10 1.10 0.0 0 1 57.72 190.04
  Q 58.73 190.32 58.81 191.31
  Q 58.86 191.96 58.38 191.53
  Q 58.04 191.22 57.60 191.18
  Q 56.83 191.11 57.07 191.85
  Q 57.27 192.47 57.83 192.73
  Q 58.31 192.94 58.59 192.50
  Q 58.69 192.35 58.86 192.42
  Q 59.04 192.50 59.07 192.69
  Q 59.49 195.32 58.03 197.00
  Z
  M 57.13 194.88
  Q 56.82 195.58 57.50 195.93
  A 0.29 0.29 0.0 0 0 57.92 195.74
  Q 58.23 194.48 58.03 193.27
  Q 57.89 192.49 57.47 193.16
  Q 56.96 193.97 57.13 194.88
  Z"
/>
<path fill="#ea5455" d="
  M 61.87 197.00
  L 59.72 197.00
  L 59.69 191.06
  Q 59.69 190.56 60.07 190.24
  Q 60.60 189.80 61.38 190.10
  Q 62.75 190.61 61.32 190.94
  Q 60.88 191.04 60.58 191.37
  A 0.53 0.52 -58.5 0 0 60.78 192.22
  L 61.88 192.62
  Q 62.71 192.93 61.84 193.08
  Q 60.21 193.38 60.51 195.20
  Q 60.60 195.77 61.14 195.94
  Q 62.63 196.39 61.87 197.00
  Z"
/>
<path fill="#ea5455" d="
  M 63.50 191.53
  L 63.19 191.70
  Q 62.78 191.92 62.75 191.45
  Q 62.72 191.03 62.85 190.62
  Q 63.04 190.04 63.65 189.98
  Q 63.92 189.95 64.16 189.97
  Q 64.93 190.03 64.81 190.79
  Q 64.45 193.06 64.96 195.54
  Q 65.41 197.66 63.56 196.52
  Q 61.99 195.56 63.18 193.97
  Q 63.58 193.42 62.95 193.19
  Q 62.78 193.13 62.79 192.90
  A 0.25 0.25 0.0 0 1 62.95 192.67
  Q 63.59 192.44 63.87 191.90
  Q 64.30 191.10 63.50 191.53
  Z"
/>
<path fill="#ea5455" d="
  M 74.44 197.00
  Q 74.21 197.01 73.98 197.00
  L 72.91 191.93
  Q 72.81 191.44 72.36 191.23
  Q 72.01 191.06 71.66 191.19
  Q 71.14 191.38 71.40 191.86
  Q 72.85 194.62 72.10 197.00
  L 70.90 197.00
  L 70.81 194.67
  Q 70.77 193.68 70.43 194.62
  Q 70.11 195.54 69.84 196.64
  Q 69.82 196.70 69.76 196.71
  L 69.32 196.75
  Q 68.87 196.79 69.03 196.36
  Q 69.47 195.27 69.26 193.90
  Q 69.06 192.52 67.84 193.19
  Q 66.67 193.84 67.00 195.34
  Q 67.11 195.82 67.56 196.03
  Q 68.65 196.51 68.29 197.00
  L 66.45 197.00
  Q 65.95 194.47 65.84 191.90
  Q 65.80 191.01 66.24 190.50
  Q 66.87 189.76 67.97 190.02
  Q 68.93 190.24 68.04 190.67
  Q 67.48 190.93 67.03 191.35
  Q 66.48 191.88 67.17 192.21
  L 68.33 192.78
  A 0.67 0.67 0.0 0 0 69.29 192.15
  L 69.21 190.62
  A 0.41 0.40 -87.1 0 1 69.67 190.20
  L 73.11 190.68
  Q 73.52 190.74 73.87 190.49
  Q 75.07 189.66 75.92 191.08
  A 0.39 0.39 0.0 0 1 75.47 191.65
  Q 75.18 191.57 74.88 191.45
  Q 73.23 190.76 74.08 192.32
  Q 74.45 192.99 74.13 194.99
  Q 73.91 196.37 74.98 195.46
  Q 75.43 195.07 76.01 195.09
  A 0.29 0.29 0.0 0 1 76.26 195.51
  Q 76.16 195.69 76.16 195.90
  Q 76.15 196.02 76.05 196.08
  L 74.44 197.00
  Z"
/>
<path fill="#ea5455" d="
  M 79.08 195.60
  Q 78.88 192.97 79.49 190.52
  A 0.63 0.63 0.0 0 1 80.42 190.13
  L 80.67 190.28
  A 0.67 0.65 -65.6 0 1 80.96 191.07
  Q 80.45 192.59 80.82 193.98
  A 0.72 0.71 75.1 0 1 80.32 194.86
  Q 79.44 195.09 79.75 195.92
  Q 79.93 196.39 79.44 196.44
  Q 78.26 196.57 77.14 196.49
  Q 76.19 196.42 76.97 195.87
  Q 77.10 195.77 77.15 195.60
  Q 77.19 195.45 77.13 195.31
  Q 76.37 193.17 76.94 190.45
  Q 76.99 190.20 77.24 190.25
  L 77.50 190.31
  Q 77.84 190.37 77.76 190.71
  Q 77.23 193.02 77.99 195.56
  Q 78.11 195.96 78.53 195.92
  L 78.84 195.89
  A 0.26 0.26 0.0 0 0 79.08 195.60
  Z"
/>
<path fill="#ea5455" d="
  M 86.92 197.00
  L 86.12 197.00
  L 85.70 194.76
  Q 85.54 193.93 85.24 194.71
  Q 84.94 195.48 84.94 196.21
  Q 84.95 196.68 84.48 196.76
  Q 83.90 196.85 83.51 196.41
  Q 83.24 196.11 83.36 195.72
  Q 83.81 194.28 83.00 192.94
  C 82.61 192.29 82.61 191.41 82.62 190.67
  Q 82.63 190.04 83.26 190.04
  L 83.60 190.04
  A 0.60 0.60 0.0 0 1 84.19 190.52
  L 84.79 193.37
  Q 84.81 193.49 84.94 193.47
  L 85.21 193.43
  Q 85.28 193.42 85.26 193.36
  Q 84.98 192.26 85.21 190.90
  Q 85.28 190.45 85.63 190.22
  Q 85.98 189.99 86.40 189.99
  Q 86.99 190.00 86.98 190.59
  L 86.92 197.00
  Z"
/>
<path fill="#ea5455" d="
  M 89.94 197.00
  L 88.14 197.00
  L 88.06 190.66
  Q 88.05 189.93 88.77 189.95
  Q 89.24 189.96 89.67 190.07
  Q 90.77 190.32 89.75 190.79
  L 89.01 191.13
  A 0.58 0.58 0.0 0 0 88.99 192.17
  L 89.69 192.53
  Q 90.35 192.86 89.68 193.16
  Q 88.36 193.75 88.71 195.29
  Q 88.83 195.80 89.33 195.97
  Q 90.26 196.26 89.94 197.00
  Z"
/>
<path fill="#ea5455" d="
  M 93.91 197.00
  L 93.01 197.00
  Q 92.27 196.08 92.45 194.84
  Q 92.48 194.61 92.25 194.57
  L 92.25 194.57
  Q 92.03 194.53 91.97 194.74
  Q 91.75 195.54 92.00 196.42
  Q 92.12 196.83 91.69 196.80
  L 91.25 196.76
  Q 91.01 196.74 91.01 196.50
  L 90.95 190.48
  Q 90.95 189.88 91.52 190.02
  L 91.92 190.12
  Q 92.24 190.20 92.29 190.53
  L 92.65 192.79
  Q 92.79 193.66 92.98 192.80
  Q 93.22 191.74 92.85 190.61
  Q 92.79 190.40 92.99 190.31
  L 93.45 190.10
  Q 93.74 189.97 93.74 190.29
  L 93.91 197.00
  Z"
/>
<path fill="#ea5455" d="
  M 95.58 190.88
  Q 95.20 190.91 94.99 190.56
  Q 94.66 190.02 95.30 190.03
  L 97.63 190.03
  Q 98.36 190.04 98.04 190.69
  Q 97.91 190.95 97.59 190.92
  A 0.51 0.51 0.0 0 0 97.02 191.43
  L 97.05 196.54
  Q 97.05 196.89 96.71 196.84
  L 96.32 196.77
  Q 96.15 196.75 96.16 196.58
  L 96.25 191.50
  Q 96.26 190.83 95.58 190.88
  Z"
/>
<path fill="#ea5455" d="
  M 100.37 197.00
  L 99.53 197.00
  Q 98.30 194.97 98.61 191.73
  Q 98.72 190.55 99.81 190.13
  A 1.09 1.09 0.0 0 1 101.28 191.08
  Q 101.41 192.96 101.45 195.00
  Q 101.48 196.44 100.37 197.00
  Z
  M 100.55 195.38
  L 100.55 191.50
  Q 100.55 191.24 100.29 191.25
  L 100.00 191.26
  Q 99.75 191.27 99.75 191.53
  L 99.77 195.49
  Q 99.77 195.66 99.94 195.66
  L 100.25 195.67
  Q 100.55 195.67 100.55 195.38
  Z"
/>
<path fill="#ea5455" d="
  M 106.34 197.00
  L 104.64 197.00
  L 104.61 190.71
  Q 104.61 190.16 105.15 190.07
  Q 106.59 189.81 106.80 191.37
  Q 107.23 194.52 106.34 197.00
  Z
  M 105.22 193.85
  C 105.30 194.44 105.24 194.88 105.11 195.45
  Q 105.09 195.53 105.12 195.60
  Q 105.19 195.77 105.34 195.80
  Q 105.82 195.93 105.90 195.44
  Q 106.31 193.12 105.80 191.48
  Q 105.51 190.54 105.31 191.50
  Q 105.06 192.73 105.22 193.85
  Z"
/>
<path fill="#ea5455" d="
  M 110.44 197.00
  L 108.15 197.00
  L 108.04 190.72
  Q 108.02 190.14 108.59 190.01
  Q 109.27 189.86 109.89 190.08
  Q 110.89 190.41 109.89 190.72
  Q 109.02 190.99 108.82 191.71
  Q 108.68 192.18 109.15 192.32
  L 110.00 192.58
  Q 110.82 192.83 110.04 193.18
  Q 109.81 193.28 109.56 193.28
  Q 109.17 193.28 109.01 193.63
  Q 108.13 195.55 110.44 197.00
  Z"
/>
<path fill="#ea5455" d="
  M 114.57 197.00
  L 113.92 197.00
  Q 112.82 194.06 113.50 191.05
  A 1.18 1.18 0.0 0 1 115.43 190.42
  Q 115.87 190.80 115.90 191.26
  Q 115.95 192.05 115.29 191.62
  L 114.80 191.30
  Q 113.95 190.75 114.12 191.75
  Q 114.42 193.47 114.08 195.26
  Q 114.04 195.51 114.15 195.72
  Q 114.22 195.86 114.47 195.80
  Q 114.72 195.74 114.86 195.52
  Q 115.14 195.10 115.62 195.12
  Q 116.32 195.15 116.02 195.79
  Q 115.67 196.57 114.57 197.00
  Z"
/>
<path fill="#ea5455" d="
  M 132.39 194.63
  Q 131.60 195.21 131.74 196.44
  Q 131.77 196.76 131.45 196.78
  L 131.15 196.79
  Q 130.85 196.81 130.89 196.51
  L 131.67 190.66
  Q 131.76 190.00 132.42 190.03
  Q 132.59 190.03 132.75 190.15
  Q 133.06 190.38 133.11 190.77
  Q 133.37 192.70 133.93 194.31
  A 1.41 1.40 -58.8 0 1 134.01 194.64
  Q 134.36 196.89 133.57 196.83
  Q 133.15 196.80 133.14 196.37
  L 133.14 195.01
  Q 133.13 194.09 132.39 194.63
  Z"
/>
<path fill="#ea5455" d="
  M 136.39 197.00
  L 135.49 197.00
  Q 134.51 195.95 135.41 195.33
  Q 135.80 195.06 136.13 195.41
  Q 136.32 195.61 136.50 195.40
  A 0.32 0.31 -47.2 0 0 136.49 194.98
  Q 134.46 192.74 134.76 190.99
  A 1.26 1.25 41.7 0 1 137.20 190.85
  Q 137.31 191.25 137.25 191.66
  Q 137.13 192.40 136.71 191.78
  Q 136.46 191.42 136.04 191.37
  Q 135.11 191.26 135.66 192.02
  C 136.55 193.24 138.47 195.76 136.39 197.00
  Z"
/>
<path fill="#ea5455" d="
  M 142.11 197.00
  L 140.56 197.00
  L 140.47 190.67
  Q 140.47 190.22 140.91 190.14
  Q 142.84 189.84 143.05 191.73
  Q 143.42 195.08 142.11 197.00
  Z
  M 141.18 194.96
  Q 141.17 197.15 141.95 195.11
  Q 142.40 193.93 141.82 191.31
  A 0.33 0.31 -7.5 0 0 141.49 191.07
  Q 141.15 191.09 141.16 191.30
  Q 141.19 192.97 141.18 194.96
  Z"
/>
<path fill="#ea5455" d="
  M 146.41 197.00
  L 144.13 197.00
  L 144.05 190.66
  Q 144.04 190.00 144.70 190.00
  L 145.79 190.01
  Q 146.73 190.02 146.02 190.63
  Q 145.66 190.93 145.21 191.08
  Q 144.76 191.25 144.73 191.73
  Q 144.72 192.06 144.98 192.26
  Q 145.24 192.46 145.55 192.44
  Q 145.93 192.42 146.12 192.78
  Q 146.40 193.33 145.79 193.24
  Q 145.55 193.21 145.34 193.30
  Q 145.01 193.44 144.88 193.77
  Q 144.15 195.51 146.41 197.00
  Z"
/>
<path fill="#ea5455" d="
  M 150.98 191.34
  Q 150.96 191.05 150.68 191.07
  L 150.37 191.09
  Q 150.18 191.10 150.16 191.28
  Q 149.93 193.03 150.46 194.54
  Q 150.69 195.18 150.48 195.90
  Q 150.35 196.31 150.06 196.58
  Q 149.25 197.33 149.25 196.22
  L 149.26 190.98
  Q 149.26 189.66 150.52 190.06
  L 150.93 190.19
  Q 152.52 190.69 152.04 192.28
  Q 151.68 193.45 152.06 194.52
  Q 152.38 195.44 151.49 195.05
  Q 151.30 194.97 151.17 194.81
  Q 150.95 194.52 150.97 194.15
  Q 151.05 192.71 150.98 191.34
  Z"
/>
<path fill="#ea5455" d="
  M 154.66 197.00
  L 153.52 197.00
  Q 153.08 196.64 152.86 196.19
  Q 152.55 195.57 153.24 195.42
  Q 153.48 195.37 153.66 195.39
  Q 154.21 195.45 153.98 194.95
  Q 153.08 193.01 153.07 190.69
  Q 153.07 189.99 153.77 189.99
  L 154.21 189.99
  A 0.78 0.77 85.1 0 1 154.97 190.64
  Q 155.09 191.32 154.53 191.65
  Q 153.88 192.01 154.25 192.66
  Q 155.40 194.73 154.66 197.00
  Z"
/>
<path fill="#ea5455" d="
  M 156.78 197.00
  Q 156.53 197.01 156.28 197.00
  Q 156.09 194.00 155.86 191.01
  Q 155.81 190.37 156.31 190.16
  Q 156.88 189.92 156.87 190.54
  L 156.78 197.00
  Z"
/>
<path fill="#ea5455" d="
  M 163.00 197.00
  L 162.20 197.00
  L 161.48 196.20
  Q 161.15 195.83 160.68 196.00
  Q 159.97 196.25 159.39 197.00
  L 158.57 197.00
  Q 157.40 193.97 158.36 190.64
  Q 158.52 190.08 159.10 190.12
  Q 159.81 190.17 160.31 190.77
  Q 160.91 191.47 160.01 191.29
  Q 159.83 191.25 159.66 191.26
  Q 159.01 191.29 158.89 191.93
  Q 158.63 193.44 158.85 194.86
  A 0.80 0.79 -4.5 0 0 159.65 195.54
  L 160.89 195.51
  Q 161.29 195.50 161.28 195.10
  L 161.24 191.53
  Q 161.23 190.33 162.43 190.14
  Q 162.64 190.11 162.85 190.17
  A 1.48 1.47 3.5 0 1 163.90 191.35
  Q 164.61 195.52 163.00 197.00
  Z
  M 162.17 192.38
  Q 162.18 194.01 162.01 195.49
  Q 161.98 195.70 162.17 195.79
  Q 162.28 195.86 162.42 195.86
  Q 162.77 195.86 162.86 195.51
  Q 163.38 193.54 162.99 192.26
  Q 162.15 189.49 162.17 192.38
  Z"
/>
<path fill="#ea5455" d="
  M 169.38 197.00
  L 168.41 197.00
  Q 167.21 194.27 167.91 190.96
  A 1.17 1.16 32.1 0 1 169.97 190.49
  Q 170.31 190.93 169.95 191.30
  Q 169.61 191.64 169.61 192.13
  L 169.61 195.13
  A 1.16 1.08 33.5 0 0 169.73 195.63
  Q 170.24 196.57 169.38 197.00
  Z"
/>
<path fill="#ea5455" d="
  M 179.72 197.00
  Q 179.46 197.00 179.19 197.00
  L 178.40 194.75
  Q 178.12 193.95 177.76 194.72
  Q 177.49 195.30 177.61 195.91
  Q 177.70 196.35 177.26 196.45
  Q 175.95 196.72 174.65 196.28
  A 1.26 1.24 -47.1 0 0 173.76 196.32
  Q 173.28 196.53 172.91 197.00
  L 171.95 197.00
  Q 170.59 195.84 170.74 193.85
  C 170.83 192.63 170.55 191.06 171.73 190.32
  A 1.42 1.42 0.0 0 1 173.71 190.82
  Q 174.16 191.62 173.72 191.68
  Q 173.56 191.70 173.46 191.57
  Q 173.03 191.03 172.35 191.20
  Q 171.67 191.36 171.97 192.00
  Q 172.37 192.84 173.32 192.55
  A 0.61 0.60 80.9 0 1 174.10 193.12
  L 174.15 195.32
  Q 174.17 195.93 174.77 195.82
  Q 175.07 195.77 175.33 195.60
  Q 175.71 195.36 175.51 194.95
  Q 174.91 193.77 174.95 192.39
  Q 174.97 191.73 174.62 191.22
  Q 174.35 190.83 174.76 190.60
  L 175.23 190.32
  Q 175.89 189.94 175.69 190.68
  C 175.25 192.33 176.11 193.21 175.97 194.58
  Q 175.94 194.81 175.77 194.97
  Q 175.52 195.21 175.73 195.48
  Q 175.97 195.77 176.35 195.82
  Q 176.92 195.90 176.96 195.32
  L 177.29 190.76
  Q 177.32 190.29 177.77 190.15
  Q 177.97 190.09 178.18 190.12
  Q 178.65 190.19 178.72 190.66
  L 179.72 197.00
  Z
  M 171.96 194.48
  Q 171.60 195.42 172.44 195.90
  A 0.41 0.40 14.8 0 0 173.05 195.55
  L 173.03 193.63
  Q 173.03 193.44 172.91 193.27
  Q 172.78 193.08 172.57 193.04
  Q 171.99 192.96 172.06 193.54
  C 172.10 193.89 172.09 194.14 171.96 194.48
  Z"
/>
<path fill="#ea5455" d="
  M 118.90 197.00
  L 116.96 197.00
  L 116.87 190.50
  Q 116.86 190.32 117.05 190.28
  L 117.44 190.21
  Q 117.71 190.16 117.70 190.44
  L 117.58 195.23
  A 0.32 0.30 18.3 0 0 117.73 195.51
  Q 119.19 196.41 118.90 197.00
  Z"
/>
<path fill="#ea5455" d="
  M 166.90 197.00
  L 164.87 197.00
  Q 165.00 193.97 164.73 191.11
  Q 164.69 190.65 164.88 190.45
  Q 165.03 190.28 165.25 190.26
  Q 165.69 190.24 165.62 190.68
  Q 164.98 194.95 166.90 197.00
  Z"
/>
<path fill="#ea5455" d="
  M 81.62 194.75
  Q 81.46 194.24 81.87 193.95
  Q 82.50 193.50 82.24 194.24
  Q 81.97 195.03 82.40 195.67
  A 0.59 0.58 46.0 0 1 82.39 196.34
  Q 82.06 196.81 81.48 196.81
  Q 80.93 196.82 80.99 196.27
  Q 81.08 195.41 81.62 194.75
  Z"
/>
</svg>
