<svg xmlns="http://www.w3.org/2000/svg" xmlns:xlink="http://www.w3.org/1999/xlink" width="200" zoomAndPan="magnify" viewBox="0 0 150 147.750002" height="197" preserveAspectRatio="xMidYMid meet" version="1.0"><defs><g/><clipPath id="588ead0194"><path d="M 45.539062 11.675781 L 89 11.675781 L 89 55 L 45.539062 55 Z M 45.539062 11.675781 " clip-rule="nonzero"/></clipPath><clipPath id="91a03a7056"><path d="M 63 43 L 104.6875 43 L 104.6875 81.304688 L 63 81.304688 Z M 63 43 " clip-rule="nonzero"/></clipPath></defs><g clip-path="url(#588ead0194)"><path fill="#00a79d" d="M 85.691406 24.636719 L 75.050781 24.636719 L 75.050781 14.039062 C 75.050781 12.75 74.003906 11.707031 72.710938 11.707031 L 60.855469 11.707031 C 59.5625 11.707031 58.515625 12.75 58.515625 14.039062 L 58.515625 24.636719 L 47.878906 24.636719 C 46.585938 24.636719 45.539062 25.679688 45.539062 26.964844 L 45.539062 38.777344 C 45.539062 40.0625 46.585938 41.105469 47.878906 41.105469 L 58.515625 41.105469 L 58.515625 51.703125 C 58.515625 52.992188 59.5625 54.035156 60.855469 54.035156 L 72.710938 54.035156 C 74.003906 54.035156 75.050781 52.992188 75.050781 51.703125 L 75.050781 41.105469 L 85.691406 41.105469 C 86.984375 41.105469 88.03125 40.0625 88.03125 38.777344 L 88.03125 26.964844 C 88.03125 25.679688 86.984375 24.636719 85.691406 24.636719 Z M 85.691406 24.636719 " fill-opacity="1" fill-rule="nonzero"/></g><g clip-path="url(#91a03a7056)"><path fill="#6bf2e5" d="M 84.566406 67.730469 L 84.566406 73.636719 C 84.566406 74.28125 84.042969 74.800781 83.394531 74.800781 L 78.070312 74.800781 L 78.070312 80.109375 C 78.070312 80.753906 77.546875 81.273438 76.898438 81.273438 L 70.972656 81.273438 C 70.324219 81.273438 69.800781 80.753906 69.800781 80.109375 L 69.800781 74.800781 L 64.476562 74.800781 C 63.828125 74.800781 63.304688 74.28125 63.304688 73.636719 L 63.304688 67.730469 C 63.304688 67.085938 63.828125 66.566406 64.476562 66.566406 L 69.800781 66.566406 L 69.800781 61.257812 C 69.800781 60.617188 70.324219 60.09375 70.972656 60.09375 L 76.898438 60.09375 C 77.546875 60.09375 78.070312 60.617188 78.070312 61.257812 L 78.070312 66.566406 L 83.394531 66.566406 C 84.027344 66.566406 84.566406 67.085938 84.566406 67.730469 Z M 103.71875 48.558594 L 99.359375 48.558594 L 99.359375 44.21875 C 99.359375 43.699219 98.929688 43.269531 98.40625 43.269531 L 93.558594 43.269531 C 93.035156 43.269531 92.601562 43.699219 92.601562 44.21875 L 92.601562 48.558594 L 88.246094 48.558594 C 87.722656 48.558594 87.292969 48.988281 87.292969 49.511719 L 87.292969 54.34375 C 87.292969 54.863281 87.722656 55.292969 88.246094 55.292969 L 92.601562 55.292969 L 92.601562 59.632812 C 92.601562 60.15625 93.035156 60.585938 93.558594 60.585938 L 98.40625 60.585938 C 98.929688 60.585938 99.359375 60.15625 99.359375 59.632812 L 99.359375 55.292969 L 103.71875 55.292969 C 104.242188 55.292969 104.671875 54.863281 104.671875 54.34375 L 104.671875 49.511719 C 104.6875 48.988281 104.257812 48.558594 103.71875 48.558594 Z M 103.71875 48.558594 " fill-opacity="1" fill-rule="nonzero"/></g><g fill="#00a79d" fill-opacity="1"><g transform="translate(1.928538, 105.511287)"><g><path d="M 10.328125 -14.328125 C 9.410156 -14.328125 8.582031 -14.085938 7.84375 -13.609375 C 7.101562 -13.128906 6.53125 -12.488281 6.125 -11.6875 C 5.71875 -10.882812 5.515625 -10.007812 5.515625 -9.0625 C 5.515625 -8.09375 5.71875 -7.195312 6.125 -6.375 C 6.539062 -5.550781 7.117188 -4.898438 7.859375 -4.421875 C 8.597656 -3.941406 9.429688 -3.703125 10.359375 -3.703125 C 11.285156 -3.703125 12.117188 -3.960938 12.859375 -4.484375 C 13.609375 -5.003906 14.222656 -5.757812 14.703125 -6.75 L 19.53125 -6.75 C 19.15625 -5.320312 18.519531 -4.070312 17.625 -3 C 16.726562 -1.9375 15.65625 -1.113281 14.40625 -0.53125 C 13.15625 0.0507812 11.820312 0.34375 10.40625 0.34375 C 9.125 0.34375 7.910156 0.113281 6.765625 -0.34375 C 5.617188 -0.800781 4.59375 -1.472656 3.6875 -2.359375 C 2.726562 -3.285156 2.023438 -4.320312 1.578125 -5.46875 C 1.128906 -6.613281 0.90625 -7.882812 0.90625 -9.28125 C 0.90625 -10.863281 1.316406 -12.351562 2.140625 -13.75 C 2.972656 -15.144531 4.101562 -16.265625 5.53125 -17.109375 C 6.957031 -17.953125 8.507812 -18.375 10.1875 -18.375 C 11.4375 -18.375 12.570312 -18.195312 13.59375 -17.84375 C 14.625 -17.488281 15.585938 -16.925781 16.484375 -16.15625 C 18.203125 -14.675781 19.21875 -13.019531 19.53125 -11.1875 L 14.703125 -11.1875 C 14.304688 -12.164062 13.710938 -12.929688 12.921875 -13.484375 C 12.140625 -14.046875 11.273438 -14.328125 10.328125 -14.328125 Z M 10.328125 -14.328125 "/></g></g></g><g fill="#00a79d" fill-opacity="1"><g transform="translate(21.71985, 105.511287)"><g><path d="M 8.109375 0.421875 C 6.742188 0.421875 5.507812 0.109375 4.40625 -0.515625 C 3.300781 -1.148438 2.425781 -2.007812 1.78125 -3.09375 C 1.144531 -4.1875 0.828125 -5.414062 0.828125 -6.78125 C 0.828125 -8.144531 1.148438 -9.375 1.796875 -10.46875 C 2.453125 -11.5625 3.335938 -12.414062 4.453125 -13.03125 C 5.566406 -13.65625 6.785156 -13.96875 8.109375 -13.96875 C 9.460938 -13.96875 10.695312 -13.65625 11.8125 -13.03125 C 12.925781 -12.414062 13.800781 -11.5625 14.4375 -10.46875 C 15.082031 -9.375 15.40625 -8.160156 15.40625 -6.828125 C 15.40625 -5.441406 15.082031 -4.195312 14.4375 -3.09375 C 13.800781 -1.988281 12.925781 -1.125 11.8125 -0.5 C 10.695312 0.113281 9.460938 0.421875 8.109375 0.421875 Z M 11.359375 -6.78125 C 11.359375 -7.375 11.210938 -7.929688 10.921875 -8.453125 C 10.640625 -8.972656 10.25 -9.390625 9.75 -9.703125 C 9.257812 -10.023438 8.707031 -10.1875 8.09375 -10.1875 C 7.507812 -10.1875 6.972656 -10.03125 6.484375 -9.71875 C 5.992188 -9.414062 5.601562 -9 5.3125 -8.46875 C 5.019531 -7.9375 4.875 -7.375 4.875 -6.78125 C 4.875 -6.15625 5.015625 -5.582031 5.296875 -5.0625 C 5.585938 -4.550781 5.976562 -4.140625 6.46875 -3.828125 C 6.96875 -3.515625 7.515625 -3.359375 8.109375 -3.359375 C 8.734375 -3.359375 9.289062 -3.515625 9.78125 -3.828125 C 10.28125 -4.148438 10.664062 -4.570312 10.9375 -5.09375 C 11.21875 -5.613281 11.359375 -6.175781 11.359375 -6.78125 Z M 11.359375 -6.78125 "/></g></g></g><g fill="#00a79d" fill-opacity="1"><g transform="translate(37.465138, 105.511287)"><g><path d="M 7.828125 -10.1875 C 7.015625 -10.1875 6.425781 -9.960938 6.0625 -9.515625 C 5.695312 -9.066406 5.515625 -8.378906 5.515625 -7.453125 L 5.515625 0 L 1.46875 0 L 1.46875 -13.53125 L 5.234375 -13.53125 L 5.234375 -12.09375 L 5.296875 -12.09375 C 5.710938 -12.769531 6.21875 -13.253906 6.8125 -13.546875 C 7.40625 -13.835938 8.125 -13.984375 8.96875 -13.984375 C 9.84375 -13.984375 10.65625 -13.804688 11.40625 -13.453125 C 12.164062 -13.097656 12.785156 -12.519531 13.265625 -11.71875 C 13.742188 -10.925781 13.984375 -9.894531 13.984375 -8.625 L 13.984375 0 L 9.9375 0 L 9.9375 -7.5 C 9.9375 -8.425781 9.765625 -9.101562 9.421875 -9.53125 C 9.085938 -9.96875 8.554688 -10.1875 7.828125 -10.1875 Z M 7.828125 -10.1875 "/></g></g></g><g fill="#00a79d" fill-opacity="1"><g transform="translate(52.381726, 105.511287)"><g><path d="M 5.96875 -10.75 C 5.625 -10.75 5.34375 -10.660156 5.125 -10.484375 C 4.90625 -10.316406 4.796875 -10.101562 4.796875 -9.84375 C 4.796875 -9.488281 4.976562 -9.195312 5.34375 -8.96875 C 5.71875 -8.738281 6.382812 -8.503906 7.34375 -8.265625 C 8.894531 -7.859375 9.992188 -7.320312 10.640625 -6.65625 C 11.285156 -6 11.609375 -5.160156 11.609375 -4.140625 C 11.609375 -3.210938 11.363281 -2.40625 10.875 -1.71875 C 10.382812 -1.03125 9.71875 -0.492188 8.875 -0.109375 C 8.039062 0.273438 7.113281 0.46875 6.09375 0.46875 C 4.5625 0.46875 3.296875 0.0625 2.296875 -0.75 C 1.296875 -1.5625 0.722656 -2.648438 0.578125 -4.015625 L 4.609375 -4.015625 C 4.671875 -3.609375 4.835938 -3.300781 5.109375 -3.09375 C 5.378906 -2.882812 5.722656 -2.78125 6.140625 -2.78125 C 6.515625 -2.78125 6.84375 -2.875 7.125 -3.0625 C 7.414062 -3.257812 7.5625 -3.515625 7.5625 -3.828125 C 7.5625 -4.210938 7.394531 -4.523438 7.0625 -4.765625 C 6.726562 -5.015625 6.0625 -5.296875 5.0625 -5.609375 C 3.457031 -6.097656 2.335938 -6.664062 1.703125 -7.3125 C 1.066406 -7.957031 0.75 -8.710938 0.75 -9.578125 C 0.75 -10.441406 0.992188 -11.207031 1.484375 -11.875 C 1.972656 -12.550781 2.617188 -13.070312 3.421875 -13.4375 C 4.222656 -13.800781 5.082031 -13.984375 6 -13.984375 C 7.476562 -13.984375 8.6875 -13.601562 9.625 -12.84375 C 10.570312 -12.082031 11.09375 -11.039062 11.1875 -9.71875 L 7.21875 -9.71875 C 7.195312 -10.40625 6.78125 -10.75 5.96875 -10.75 Z M 5.96875 -10.75 "/></g></g></g><g fill="#00a79d" fill-opacity="1"><g transform="translate(64.056624, 105.511287)"><g><path d="M 10.109375 -1.4375 C 9.816406 -0.800781 9.382812 -0.328125 8.8125 -0.015625 C 8.25 0.285156 7.519531 0.4375 6.625 0.4375 C 5.101562 0.4375 3.851562 -0.0234375 2.875 -0.953125 C 1.894531 -1.890625 1.40625 -3.28125 1.40625 -5.125 L 1.40625 -13.53125 L 5.453125 -13.53125 L 5.453125 -5.953125 C 5.453125 -5.054688 5.625 -4.394531 5.96875 -3.96875 C 6.3125 -3.550781 6.863281 -3.34375 7.625 -3.34375 C 8.375 -3.34375 8.945312 -3.578125 9.34375 -4.046875 C 9.738281 -4.515625 9.9375 -5.171875 9.9375 -6.015625 L 9.9375 -13.53125 L 13.984375 -13.53125 L 13.984375 0 L 10.171875 0 L 10.171875 -1.4375 Z M 10.109375 -1.4375 "/></g></g></g><g fill="#00a79d" fill-opacity="1"><g transform="translate(79.021956, 105.511287)"><g><path d="M 5.515625 -18.03125 L 5.515625 0 L 1.46875 0 L 1.46875 -18.03125 Z M 5.515625 -18.03125 "/></g></g></g><g fill="#00a79d" fill-opacity="1"><g transform="translate(85.505282, 105.511287)"><g><path d="M 0.265625 -10.453125 L 0.265625 -13.53125 L 2.265625 -13.53125 L 2.265625 -18.03125 L 6.3125 -18.03125 L 6.3125 -13.53125 L 8.265625 -13.53125 L 8.265625 -10.453125 L 6.3125 -10.453125 L 6.3125 0 L 2.265625 0 L 2.265625 -10.453125 Z M 0.265625 -10.453125 "/></g></g></g><g fill="#00a79d" fill-opacity="1"><g transform="translate(93.572884, 105.511287)"><g><path d="M 11.65625 -18.03125 L 11.65625 -13.984375 L 6.046875 -13.984375 L 6.046875 -11.1875 L 11.484375 -11.1875 L 11.484375 -7.140625 L 6.046875 -7.140625 L 6.046875 -4.046875 L 11.65625 -4.046875 L 11.65625 0 L 1.640625 0 L 1.640625 -18.03125 Z M 11.65625 -18.03125 "/></g></g></g><g fill="#00a79d" fill-opacity="1"><g transform="translate(105.954627, 105.511287)"><g><path d="M 11.578125 -1.46875 C 11.285156 -0.875 10.773438 -0.398438 10.046875 -0.046875 C 9.316406 0.296875 8.503906 0.46875 7.609375 0.46875 C 6.304688 0.46875 5.140625 0.148438 4.109375 -0.484375 C 3.078125 -1.117188 2.269531 -1.988281 1.6875 -3.09375 C 1.113281 -4.195312 0.828125 -5.425781 0.828125 -6.78125 C 0.828125 -8.09375 1.125 -9.300781 1.71875 -10.40625 C 2.3125 -11.507812 3.125 -12.378906 4.15625 -13.015625 C 5.1875 -13.660156 6.335938 -13.984375 7.609375 -13.984375 C 8.453125 -13.984375 9.226562 -13.816406 9.9375 -13.484375 C 10.65625 -13.148438 11.203125 -12.6875 11.578125 -12.09375 L 11.625 -12.09375 L 11.625 -13.53125 L 15.671875 -13.53125 L 15.671875 0 L 11.625 0 L 11.625 -1.46875 Z M 11.625 -6.78125 C 11.625 -7.394531 11.46875 -7.960938 11.15625 -8.484375 C 10.851562 -9.015625 10.4375 -9.4375 9.90625 -9.75 C 9.375 -10.0625 8.800781 -10.21875 8.1875 -10.21875 C 7.582031 -10.21875 7.023438 -10.0625 6.515625 -9.75 C 6.003906 -9.4375 5.601562 -9.007812 5.3125 -8.46875 C 5.019531 -7.9375 4.875 -7.359375 4.875 -6.734375 C 4.875 -6.109375 5.023438 -5.535156 5.328125 -5.015625 C 5.628906 -4.492188 6.035156 -4.078125 6.546875 -3.765625 C 7.054688 -3.460938 7.617188 -3.3125 8.234375 -3.3125 C 8.859375 -3.3125 9.425781 -3.460938 9.9375 -3.765625 C 10.457031 -4.078125 10.867188 -4.5 11.171875 -5.03125 C 11.472656 -5.5625 11.625 -6.144531 11.625 -6.78125 Z M 11.625 -6.78125 "/></g></g></g><g fill="#00a79d" fill-opacity="1"><g transform="translate(122.626118, 105.511287)"><g><path d="M 5.96875 -10.75 C 5.625 -10.75 5.34375 -10.660156 5.125 -10.484375 C 4.90625 -10.316406 4.796875 -10.101562 4.796875 -9.84375 C 4.796875 -9.488281 4.976562 -9.195312 5.34375 -8.96875 C 5.71875 -8.738281 6.382812 -8.503906 7.34375 -8.265625 C 8.894531 -7.859375 9.992188 -7.320312 10.640625 -6.65625 C 11.285156 -6 11.609375 -5.160156 11.609375 -4.140625 C 11.609375 -3.210938 11.363281 -2.40625 10.875 -1.71875 C 10.382812 -1.03125 9.71875 -0.492188 8.875 -0.109375 C 8.039062 0.273438 7.113281 0.46875 6.09375 0.46875 C 4.5625 0.46875 3.296875 0.0625 2.296875 -0.75 C 1.296875 -1.5625 0.722656 -2.648438 0.578125 -4.015625 L 4.609375 -4.015625 C 4.671875 -3.609375 4.835938 -3.300781 5.109375 -3.09375 C 5.378906 -2.882812 5.722656 -2.78125 6.140625 -2.78125 C 6.515625 -2.78125 6.84375 -2.875 7.125 -3.0625 C 7.414062 -3.257812 7.5625 -3.515625 7.5625 -3.828125 C 7.5625 -4.210938 7.394531 -4.523438 7.0625 -4.765625 C 6.726562 -5.015625 6.0625 -5.296875 5.0625 -5.609375 C 3.457031 -6.097656 2.335938 -6.664062 1.703125 -7.3125 C 1.066406 -7.957031 0.75 -8.710938 0.75 -9.578125 C 0.75 -10.441406 0.992188 -11.207031 1.484375 -11.875 C 1.972656 -12.550781 2.617188 -13.070312 3.421875 -13.4375 C 4.222656 -13.800781 5.082031 -13.984375 6 -13.984375 C 7.476562 -13.984375 8.6875 -13.601562 9.625 -12.84375 C 10.570312 -12.082031 11.09375 -11.039062 11.1875 -9.71875 L 7.21875 -9.71875 C 7.195312 -10.40625 6.78125 -10.75 5.96875 -10.75 Z M 5.96875 -10.75 "/></g></g></g><g fill="#00a79d" fill-opacity="1"><g transform="translate(134.301016, 105.511287)"><g><path d="M 0.03125 -13.53125 L 4.34375 -13.53125 L 7.046875 -5.671875 L 7.09375 -5.671875 L 9.671875 -13.53125 L 13.96875 -13.53125 L 7.1875 4.515625 L 2.90625 4.515625 L 5.046875 -0.6875 Z M 0.03125 -13.53125 "/></g></g></g></svg>