<?xml version="1.0" encoding="UTF-8" standalone="no"?>
<!DOCTYPE svg PUBLIC "-//W3C//DTD SVG 1.1//EN" "http://www.w3.org/Graphics/SVG/1.1/DTD/svg11.dtd">
<svg xmlns="http://www.w3.org/2000/svg" version="1.1" viewBox="0.00 0.00 300.00 104.00">
<path fill="#d72323" d="
  M 23.63 0.00
  L 30.46 0.00
  L 42.20 3.22
  A 2.13 2.12 29.7 0 0 44.28 2.66
  Q 46.71 0.21 50.47 1.19
  A 0.67 0.66 6.7 0 1 50.96 1.80
  L 51.86 18.44
  A 0.69 0.69 0.0 0 1 51.36 19.14
  Q 49.04 19.79 46.75 18.67
  C 44.78 17.70 44.18 15.34 43.00 13.62
  Q 35.96 3.30 24.89 6.16
  Q 20.25 7.35 18.60 11.72
  C 15.16 20.80 21.49 26.50 28.74 30.19
  Q 35.63 33.70 42.20 37.03
  C 48.69 40.33 55.79 46.31 57.40 53.67
  Q 61.03 70.32 47.19 78.82
  Q 39.29 83.68 29.07 83.02
  C 23.21 82.65 18.35 79.96 12.83 78.70
  Q 9.29 77.88 7.50 80.93
  Q 7.15 81.51 6.47 81.51
  L 3.00 81.48
  Q 2.03 81.47 1.97 80.50
  L 0.80 62.73
  A 0.70 0.69 -0.3 0 1 1.53 62.00
  L 6.47 62.28
  Q 7.58 62.34 8.01 63.36
  Q 13.92 77.32 28.04 77.42
  Q 32.14 77.44 36.03 75.36
  C 37.91 74.35 39.31 72.43 40.04 70.42
  Q 43.76 60.13 34.22 53.74
  Q 28.11 49.65 19.31 45.25
  C 8.11 39.66 -1.11 29.95 2.39 16.60
  Q 5.45 4.95 17.50 1.46
  Q 19.24 0.95 23.63 0.00
  Z"
/>
<path fill="#d72323" d="
  M 100.69 0.00
  L 109.20 0.00
  Q 120.44 3.06 125.26 2.76
  Q 127.77 2.60 130.45 2.26
  A 0.65 0.64 -6.6 0 1 131.17 2.83
  Q 132.45 14.13 136.95 24.26
  A 0.14 0.14 0.0 0 1 136.83 24.45
  Q 132.24 24.55 127.70 24.48
  Q 127.45 24.48 127.34 24.25
  Q 124.02 17.07 118.88 11.99
  C 113.58 6.77 104.20 3.45 97.10 6.93
  C 91.77 9.54 88.17 15.94 86.96 21.85
  Q 86.30 25.07 85.63 32.02
  Q 83.98 49.22 90.61 65.16
  C 93.18 71.33 97.93 76.13 104.70 77.51
  C 111.49 78.90 119.31 76.86 120.22 68.83
  Q 121.22 59.86 120.51 52.93
  C 120.09 48.76 114.77 48.65 111.63 48.52
  Q 110.88 48.49 110.89 47.74
  L 110.94 44.40
  Q 110.95 43.75 111.60 43.75
  L 144.23 43.75
  Q 144.95 43.75 144.94 44.48
  L 144.86 47.53
  Q 144.84 48.38 143.99 48.45
  Q 137.68 49.00 137.52 55.74
  Q 137.32 64.35 137.88 73.67
  A 0.93 0.93 0.0 0 0 138.83 74.55
  Q 140.08 74.52 141.24 75.06
  Q 141.85 75.35 141.87 76.03
  L 141.94 78.71
  A 1.09 1.08 -87.9 0 1 140.75 79.82
  C 129.52 78.66 118.87 81.91 108.20 83.05
  Q 103.15 83.59 96.27 82.50
  Q 86.72 81.00 79.23 74.06
  C 63.55 59.51 61.71 32.98 74.03 15.78
  Q 83.75 2.22 100.69 0.00
  Z"
/>
<path fill="#d72323" d="
  M 186.67 0.00
  L 194.97 0.00
  Q 198.54 1.10 202.21 1.71
  C 208.10 2.70 211.72 3.51 216.49 2.30
  A 0.94 0.93 -10.6 0 1 217.65 3.09
  Q 219.01 13.98 223.35 24.28
  A 0.11 0.11 0.0 0 1 223.25 24.43
  Q 218.93 24.58 214.02 24.45
  Q 213.91 24.45 213.86 24.34
  C 209.64 14.63 202.24 6.75 191.70 5.69
  C 179.65 4.48 173.42 14.65 172.05 25.17
  Q 170.28 38.75 172.17 50.64
  C 174.11 62.77 180.30 76.41 194.29 77.39
  C 205.82 78.19 214.06 70.53 217.89 60.16
  Q 217.95 60.01 218.11 60.01
  L 224.01 60.00
  A 0.14 0.14 0.0 0 1 224.15 60.18
  Q 219.44 77.41 202.37 82.00
  Q 188.28 85.78 173.01 78.94
  C 163.42 74.64 156.27 64.93 153.82 55.19
  Q 148.12 32.54 160.02 15.51
  Q 169.19 2.39 186.67 0.00
  Z"
/>
<path fill="#d72323" d="
  M 257.47 51.74
  Q 257.38 62.48 257.49 72.17
  C 257.53 75.87 262.88 76.08 265.58 76.44
  Q 266.72 76.59 266.71 77.75
  L 266.71 80.51
  Q 266.71 81.57 265.64 81.53
  Q 248.10 80.99 231.25 81.54
  A 0.99 0.99 0.0 0 1 230.23 80.55
  L 230.25 77.55
  Q 230.26 76.58 231.22 76.47
  Q 234.24 76.12 237.20 75.27
  C 239.06 74.74 239.45 73.03 239.45 71.33
  Q 239.48 42.04 239.47 12.75
  C 239.46 8.34 235.33 6.93 231.71 6.95
  A 0.69 0.69 0.0 0 1 231.01 6.26
  L 231.00 2.98
  Q 231.00 2.26 231.72 2.26
  Q 250.37 2.18 268.59 2.30
  C 276.07 2.35 284.46 3.90 290.97 8.30
  C 301.09 15.14 301.91 30.42 293.27 38.65
  Q 289.06 42.67 283.84 44.85
  Q 271.92 49.84 258.14 51.03
  A 0.72 0.72 0.0 0 0 257.47 51.74
  Z
  M 258.13 45.68
  C 266.10 45.86 276.64 42.05 279.95 34.75
  Q 283.34 27.29 281.36 18.67
  Q 279.07 8.64 268.34 7.46
  Q 263.22 6.89 257.92 7.05
  A 0.50 0.49 -0.6 0 0 257.43 7.54
  L 257.43 44.97
  A 0.71 0.71 0.0 0 0 258.13 45.68
  Z"
/>
<path fill="#22242c" d="
  M 208.17 99.02
  Q 208.22 98.89 208.35 98.93
  L 208.36 98.93
  Q 208.49 98.97 208.47 99.11
  Q 208.04 101.31 207.71 103.51
  Q 207.69 103.67 207.54 103.62
  L 207.28 103.55
  Q 207.19 103.52 207.19 103.49
  Q 207.29 101.36 208.17 99.02
  Z"
/>
<rect fill="#22242c" x="-0.59" y="-2.20" transform="translate(61.95,101.55) rotate(-6.7)" width="1.18" height="4.40" rx="0.35"/>
<path fill="#22242c" d="
  M 79.18 99.67
  Q 78.87 101.10 79.61 102.38
  Q 79.87 102.83 79.54 103.23
  Q 79.06 103.79 78.29 103.66
  Q 77.85 103.59 77.88 103.14
  L 78.16 99.49
  Q 78.18 99.22 78.46 99.23
  L 78.86 99.26
  Q 79.26 99.28 79.18 99.67
  Z"
/>
<path fill="#22242c" d="
  M 99.14 100.07
  L 98.44 100.43
  Q 97.73 100.80 97.95 100.03
  Q 98.14 99.38 98.95 99.35
  A 1.06 1.02 -32.2 0 1 99.44 99.45
  Q 102.15 100.83 100.76 103.24
  Q 100.60 103.52 100.40 103.26
  L 100.18 103.00
  Q 100.15 102.95 100.18 102.90
  Q 100.94 101.62 100.15 100.35
  A 0.78 0.78 0.0 0 0 99.14 100.07
  Z"
/>
<path fill="#22242c" d="
  M 103.53 100.66
  Q 102.95 100.83 103.27 100.32
  Q 103.80 99.47 105.18 99.40
  Q 106.06 99.35 105.32 99.83
  Q 104.51 100.36 103.53 100.66
  Z"
/>
<path fill="#22242c" d="
  M 123.59 100.29
  Q 123.45 100.04 123.46 99.75
  Q 123.49 99.09 124.01 99.50
  Q 124.27 99.71 124.49 99.95
  Q 124.74 100.24 124.73 100.60
  Q 124.71 101.76 124.74 103.03
  Q 124.76 103.87 124.05 103.42
  L 122.98 102.72
  Q 122.38 102.33 122.89 101.84
  L 123.46 101.28
  A 0.82 0.81 52.8 0 0 123.59 100.29
  Z"
/>
<path fill="#22242c" d="
  M 128.74 101.99
  Q 129.05 102.10 129.30 102.32
  Q 129.95 102.89 129.11 103.13
  L 127.86 103.48
  Q 127.36 103.62 127.29 103.10
  Q 127.01 100.99 128.03 99.71
  Q 128.77 98.78 128.46 99.93
  L 128.19 100.95
  Q 127.98 101.73 128.74 101.99
  Z"
/>
<path fill="#22242c" d="
  M 138.89 100.58
  Q 138.67 101.61 139.28 102.72
  Q 139.75 103.59 139.01 102.93
  C 137.27 101.40 138.82 98.56 141.36 99.62
  Q 141.49 99.68 141.45 99.82
  L 141.36 100.09
  Q 141.33 100.17 141.25 100.15
  Q 140.50 100.01 139.72 99.98
  Q 139.03 99.96 138.89 100.58
  Z"
/>
<path fill="#22242c" d="
  M 159.71 103.59
  A 0.25 0.25 0.0 0 1 159.47 103.34
  L 159.48 103.17
  A 4.02 0.65 -88.3 0 1 160.25 99.17
  L 160.53 99.18
  A 4.02 0.65 -88.3 0 1 161.06 103.21
  L 161.05 103.38
  A 0.25 0.25 0.0 0 1 160.79 103.63
  L 159.71 103.59
  Z"
/>
<path fill="#22242c" d="
  M 198.65 100.36
  Q 197.79 101.19 198.53 102.49
  Q 199.05 103.39 198.21 102.78
  Q 197.50 102.26 197.69 101.34
  A 2.54 2.15 -81.7 0 1 200.00 99.30
  Q 200.22 99.31 200.33 99.55
  Q 200.62 100.19 199.94 100.03
  Q 199.19 99.85 198.65 100.36
  Z"
/>
<ellipse fill="#22242c" cx="0.00" cy="0.00" transform="translate(221.24,99.81) rotate(-20.7)" rx="1.27" ry="0.43"/>
<path fill="#22242c" d="
  M 245.46 101.76
  L 245.97 102.12
  Q 246.65 102.61 245.90 102.97
  L 244.63 103.59
  Q 244.11 103.84 244.06 103.27
  Q 243.86 101.15 244.63 99.29
  Q 244.68 99.16 244.81 99.21
  L 245.20 99.34
  Q 245.61 99.47 245.38 99.83
  Q 245.15 100.21 245.05 100.65
  A 1.08 1.08 0.0 0 0 245.46 101.76
  Z"
/>
<path fill="#22242c" d="
  M 266.28 99.65
  C 265.52 100.00 265.25 100.06 264.63 100.68
  Q 263.92 101.40 264.37 100.50
  Q 264.94 99.39 266.20 99.33
  Q 267.04 99.30 266.28 99.65
  Z"
/>
<path fill="#22242c" d="
  M 270.81 100.14
  Q 270.14 100.71 269.95 101.69
  A 1.00 1.00 0.0 0 0 270.44 102.74
  Q 271.48 103.35 272.84 102.59
  Q 274.26 101.81 273.08 102.91
  Q 271.92 103.99 270.15 102.99
  Q 269.66 102.71 269.57 102.15
  Q 269.37 101.00 270.05 99.97
  C 270.89 98.68 272.55 99.20 273.22 100.31
  Q 273.59 100.91 272.97 100.58
  L 271.95 100.02
  Q 271.34 99.69 270.81 100.14
  Z"
/>
<path fill="#22242c" d="
  M 286.74 101.79
  Q 286.83 102.07 286.50 102.20
  Q 286.11 102.35 286.21 101.94
  Q 286.65 100.07 288.46 99.39
  Q 289.22 99.11 288.62 99.64
  L 286.92 101.16
  Q 286.63 101.42 286.74 101.79
  Z"
/>
<path fill="#22242c" d="
  M 73.28 100.16
  Q 72.18 99.48 73.47 99.51
  L 74.81 99.53
  Q 75.65 99.55 75.05 100.14
  Q 74.34 100.82 73.28 100.16
  Z"
/>
<path fill="#22242c" d="
  M 118.91 102.02
  Q 119.12 102.16 119.21 102.39
  Q 119.44 103.02 118.83 103.32
  Q 118.49 103.49 118.11 103.48
  Q 117.62 103.46 117.51 102.98
  Q 117.05 101.07 118.11 99.77
  Q 118.66 99.11 118.56 99.96
  L 118.44 100.98
  Q 118.36 101.65 118.91 102.02
  Z"
/>
<path fill="#22242c" d="
  M 154.11 101.74
  Q 154.48 102.75 154.06 103.47
  A 0.61 0.61 0.0 0 1 152.93 103.27
  L 152.37 100.05
  Q 152.26 99.41 152.86 99.65
  Q 153.46 99.89 153.71 100.63
  Q 153.90 101.18 154.11 101.74
  Z"
/>
<path fill="#22242c" d="
  M 170.82 99.78
  Q 170.79 99.53 171.04 99.54
  L 171.77 99.55
  A 0.47 0.47 0.0 0 1 172.21 100.16
  Q 172.14 100.37 172.01 100.54
  A 0.49 0.49 0.0 0 1 171.36 100.64
  Q 170.88 100.33 170.82 99.78
  Z"
/>
<path fill="#22242c" d="
  M 239.02 102.72
  A 0.84 0.84 0.0 0 0 240.03 103.11
  C 241.69 102.55 241.32 100.48 239.73 100.13
  Q 239.13 99.99 238.79 100.51
  L 238.59 100.82
  Q 238.37 101.14 238.26 100.77
  Q 238.12 100.32 238.29 99.91
  Q 238.48 99.46 238.97 99.47
  Q 240.51 99.51 241.34 100.53
  A 1.78 1.77 44.6 0 1 241.36 102.72
  Q 240.39 103.96 238.98 103.79
  Q 238.50 103.73 238.24 103.30
  Q 237.93 102.78 238.06 102.21
  Q 238.25 101.30 238.69 102.11
  L 239.02 102.72
  Z"
/>
<path fill="#22242c" d="
  M 258.54 103.13
  A 0.43 0.42 -15.0 0 1 258.26 103.61
  L 257.74 103.79
  Q 257.31 103.95 257.27 103.49
  L 257.00 99.97
  A 0.39 0.38 -8.4 0 1 257.31 99.56
  L 257.57 99.51
  Q 257.90 99.45 257.96 99.78
  L 258.54 103.13
  Z"
/>
<path fill="#22242c" d="
  M 297.84 101.67
  L 299.02 102.66
  A 0.35 0.35 0.0 0 1 298.65 103.25
  L 297.24 102.64
  A 0.35 0.35 0.0 0 0 296.98 102.63
  L 295.52 103.15
  A 0.35 0.35 0.0 0 1 295.20 102.54
  L 296.44 101.62
  A 0.35 0.35 0.0 0 0 296.58 101.40
  L 296.85 99.88
  A 0.35 0.35 0.0 0 1 297.54 99.90
  L 297.71 101.44
  A 0.35 0.35 0.0 0 0 297.84 101.67
  Z"
/>
<path fill="#22242c" d="
  M 82.06 102.76
  C 82.76 101.87 82.89 101.33 82.61 100.21
  A 0.36 0.36 0.0 0 1 83.02 99.76
  L 83.46 99.83
  Q 83.70 99.87 83.68 100.11
  L 83.58 102.23
  Q 83.55 102.73 83.12 102.98
  Q 82.76 103.18 82.37 103.26
  Q 81.55 103.42 82.06 102.76
  Z"
/>
<path fill="#22242c" d="
  M 86.04 100.40
  Q 87.08 99.04 86.81 100.73
  L 86.39 103.30
  A 0.51 0.51 0.0 0 1 85.43 103.46
  Q 84.72 102.13 86.04 100.40
  Z"
/>
<path fill="#22242c" d="
  M 90.45 101.98
  Q 90.24 102.69 89.73 103.23
  Q 89.13 103.85 89.35 103.02
  Q 89.78 101.38 90.56 99.96
  A 0.46 0.46 0.0 0 1 91.35 99.93
  Q 92.25 101.32 92.69 102.91
  Q 92.97 103.90 92.26 103.15
  Q 91.80 102.65 91.57 101.96
  Q 90.98 100.14 90.45 101.98
  Z"
/>
<path fill="#22242c" d="
  M 112.65 100.19
  C 111.56 101.03 111.60 102.05 112.48 102.98
  Q 112.78 103.31 112.37 103.48
  Q 112.23 103.54 112.06 103.49
  Q 111.92 103.44 111.86 103.31
  Q 110.78 101.28 112.40 99.75
  Q 112.44 99.72 112.48 99.75
  L 112.66 99.92
  Q 112.82 100.06 112.65 100.19
  Z"
/>
<path fill="#22242c" d="
  M 147.93 102.19
  Q 147.76 102.81 147.27 103.25
  Q 146.70 103.75 146.86 103.01
  Q 147.20 101.48 148.00 100.15
  Q 148.20 99.83 148.57 99.83
  Q 149.18 99.84 148.95 100.40
  Q 148.73 100.97 148.31 101.45
  Q 148.03 101.78 147.93 102.19
  Z"
/>
<path fill="#22242c" d="
  M 156.82 102.04
  L 157.18 102.51
  Q 157.59 103.06 156.92 103.17
  Q 156.64 103.21 156.45 103.04
  Q 155.63 102.28 155.71 100.89
  Q 155.75 100.18 156.30 99.81
  Q 157.05 99.29 156.85 100.19
  L 156.63 101.17
  Q 156.53 101.65 156.82 102.04
  Z"
/>
<path fill="#22242c" d="
  M 163.86 102.73
  C 164.07 101.72 164.25 101.17 164.26 100.10
  Q 164.26 99.44 164.82 99.80
  L 165.29 100.11
  A 0.31 0.31 0.0 0 1 165.42 100.38
  Q 165.34 101.91 164.34 102.98
  Q 163.63 103.75 163.86 102.73
  Z"
/>
<path fill="#22242c" d="
  M 226.18 100.74
  Q 226.07 100.16 226.54 99.85
  Q 227.07 99.49 227.18 100.12
  Q 227.43 101.51 228.31 102.58
  Q 228.85 103.24 228.03 103.01
  Q 226.54 102.58 225.06 103.23
  Q 224.78 103.35 224.52 103.18
  Q 224.48 103.16 224.45 103.12
  Q 224.36 102.97 224.49 102.85
  Q 225.04 102.32 225.67 101.91
  Q 226.32 101.50 226.18 100.74
  Z"
/>
<path fill="#22242c" d="
  M 253.49 100.81
  Q 253.55 100.52 253.57 100.24
  Q 253.60 99.52 254.15 100.00
  Q 254.25 100.09 254.35 100.19
  A 0.58 0.58 0.0 0 1 254.42 100.97
  Q 253.34 102.39 251.73 103.21
  Q 251.48 103.34 251.39 103.07
  L 251.30 102.77
  Q 251.23 102.57 251.42 102.48
  Q 252.42 102.00 253.19 101.33
  Q 253.42 101.13 253.49 100.81
  Z"
/>
<path fill="#22242c" d="
  M 136.19 103.24
  A 0.18 0.18 0.0 0 1 135.99 103.49
  Q 135.25 103.38 134.70 102.92
  Q 134.28 102.57 134.54 102.09
  L 135.43 100.50
  Q 136.06 99.38 135.89 100.65
  Q 135.71 102.05 136.19 103.24
  Z"
/>
<ellipse fill="#22242c" cx="0.00" cy="0.00" transform="translate(144.50,101.73) rotate(92.0)" rx="1.69" ry="0.27"/>
<path fill="#22242c" d="
  M 204.18 102.44
  Q 204.46 102.84 204.81 103.24
  A 0.37 0.37 0.0 0 1 204.46 103.85
  L 204.02 103.77
  Q 203.69 103.71 203.58 103.39
  Q 203.11 102.10 203.27 100.47
  Q 203.38 99.36 203.65 100.45
  Q 203.83 101.20 203.96 101.92
  Q 204.02 102.21 204.18 102.44
  Z"
/>
<path fill="#22242c" d="
  M 210.70 100.93
  L 210.62 100.56
  Q 210.51 100.04 211.05 100.03
  Q 211.28 100.02 211.50 100.09
  Q 212.00 100.25 211.89 100.77
  Q 211.60 102.10 210.79 103.09
  Q 210.34 103.64 210.37 102.93
  Q 210.40 102.45 210.59 101.98
  Q 210.81 101.47 210.70 100.93
  Z"
/>
<path fill="#22242c" d="
  M 261.50 100.88
  C 261.54 101.50 261.54 102.48 261.41 103.06
  Q 261.22 103.92 261.03 103.06
  Q 260.80 101.98 261.19 100.84
  Q 261.45 100.09 261.50 100.88
  Z"
/>
<path fill="#22242c" d="
  M 190.93 101.85
  L 191.45 101.43
  Q 191.59 101.32 191.66 101.48
  L 192.25 102.75
  Q 192.62 103.54 191.74 103.50
  L 190.71 103.46
  Q 189.81 103.42 190.05 102.55
  Q 190.15 102.20 190.53 102.07
  Q 190.75 101.99 190.93 101.85
  Z"
/>
<path fill="#22242c" d="
  M 288.29 103.10
  L 289.53 101.66
  A 0.33 0.33 0.0 0 1 290.05 101.69
  Q 290.45 102.25 290.08 102.79
  Q 289.53 103.57 288.51 103.58
  Q 287.87 103.58 288.29 103.10
  Z"
/>
<path fill="#22242c" d="
  M 114.24 103.42
  L 113.94 103.29
  Q 113.29 103.00 113.74 102.45
  L 114.14 101.98
  Q 114.85 101.12 115.01 102.22
  Q 115.09 102.73 114.88 103.18
  A 0.48 0.48 0.0 0 1 114.24 103.42
  Z"
/>
<ellipse fill="#22242c" cx="0.00" cy="0.00" transform="translate(167.26,102.75) rotate(104.7)" rx="1.00" ry="0.69"/>
<path fill="#22242c" d="
  M 232.44 101.74
  A 0.45 0.44 -9.6 0 1 232.94 102.09
  Q 233.04 102.52 232.95 102.98
  Q 232.80 103.70 232.12 103.44
  Q 231.69 103.28 231.42 102.88
  Q 231.15 102.47 231.51 102.16
  Q 231.90 101.82 232.44 101.74
  Z"
/>
<path fill="#22242c" d="
  M 68.85 103.36
  Q 68.01 103.46 68.53 102.79
  Q 69.39 101.67 70.59 102.26
  A 0.49 0.49 0.0 0 1 70.43 103.18
  L 68.85 103.36
  Z"
/>
<path fill="#22242c" d="
  M 105.78 102.44
  Q 106.75 103.06 105.61 103.22
  Q 104.55 103.36 103.58 103.14
  Q 102.67 102.93 103.42 102.39
  Q 104.50 101.62 105.78 102.44
  Z"
/>
<path fill="#22242c" d="
  M 184.99 102.37
  C 185.55 102.60 186.22 102.51 186.81 102.53
  Q 187.70 102.56 186.93 102.99
  Q 185.29 103.91 183.99 102.97
  Q 183.45 102.59 184.07 102.37
  Q 184.55 102.20 184.99 102.37
  Z"
/>
<ellipse fill="#22242c" cx="0.00" cy="0.00" transform="translate(220.77,103.04) rotate(27.9)" rx="1.35" ry="0.31"/>
</svg>
